<svg xmlns="http://www.w3.org/2000/svg" xmlns:xlink="http://www.w3.org/1999/xlink" width="500" zoomAndPan="magnify" viewBox="0 0 375 374.999991" height="500" preserveAspectRatio="xMidYMid meet" version="1.0"><defs><clipPath id="ff0278e717"><path d="M 191 123 L 337.144531 123 L 337.144531 359.628906 L 191 359.628906 Z M 191 123 " clip-rule="nonzero"/></clipPath><clipPath id="c8501544e4"><path d="M 37.144531 15.378906 L 251 15.378906 L 251 310 L 37.144531 310 Z M 37.144531 15.378906 " clip-rule="nonzero"/></clipPath></defs><rect x="-37.5" width="450" fill="#ffffff" y="-37.499999" height="449.999989" fill-opacity="1"/><rect x="-37.5" width="450" fill="#ffffff" y="-37.499999" height="449.999989" fill-opacity="1"/><rect x="-37.5" width="450" fill="#ffffff" y="-37.499999" height="449.999989" fill-opacity="1"/><g clip-path="url(#ff0278e717)"><path fill="#ff6a0c" d="M 337.15625 123.472656 L 291.15625 149.660156 L 291.136719 247.597656 L 191.722656 305.058594 L 191.722656 359.609375 L 337.183594 275.515625 Z M 337.15625 123.472656 " fill-opacity="1" fill-rule="nonzero"/></g><g clip-path="url(#c8501544e4)"><path fill="#ff6a0c" d="M 83.226562 127.410156 L 187.183594 67.324219 L 205.464844 77.890625 L 250.882812 52.214844 L 187.183594 15.394531 L 37.175781 102.105469 L 37.175781 275.515625 L 95.191406 309.0625 L 95.191406 254.515625 L 83.226562 247.597656 Z M 83.226562 127.410156 " fill-opacity="1" fill-rule="nonzero"/></g><path fill="#0061a9" d="M 262.800781 165.679688 L 167.203125 219.941406 L 167.203125 183.601562 L 323.421875 94.136719 L 269.984375 63.28125 L 116.660156 150.289062 L 116.660156 321.464844 L 167.203125 350.675781 L 167.203125 263.414062 L 262.800781 208.679688 Z M 262.800781 165.679688 " fill-opacity="1" fill-rule="nonzero"/></svg>