<svg xmlns="http://www.w3.org/2000/svg" xmlns:xlink="http://www.w3.org/1999/xlink" width="500" zoomAndPan="magnify" viewBox="0 0 375 374.999991" height="500" preserveAspectRatio="xMidYMid meet" version="1.0"><defs><clipPath id="78df1b0048"><path d="M 17.867188 37.285156 L 356.867188 37.285156 L 356.867188 337.285156 L 17.867188 337.285156 Z M 17.867188 37.285156 " clip-rule="nonzero"/></clipPath></defs><rect x="-37.5" width="450" fill="#ffffff" y="-37.499999" height="449.999989" fill-opacity="1"/><rect x="-37.5" width="450" fill="#ffffff" y="-37.499999" height="449.999989" fill-opacity="1"/><rect x="-37.5" width="450" fill="#ffffff" y="-37.499999" height="449.999989" fill-opacity="1"/><g clip-path="url(#78df1b0048)"><path fill="#000000" d="M 251.152344 137.644531 L 227.503906 137.882812 L 210.695312 138.046875 L 198.289062 138.046875 L 180.535156 94.003906 L 210.253906 94.003906 L 252.035156 93.585938 C 271.273438 93.394531 281.300781 101.171875 281.433594 114.777344 L 281.445312 115.492188 C 281.59375 130.175781 270.71875 137.445312 251.152344 137.644531 Z M 356.425781 217.523438 C 356.085938 183.503906 338.003906 166.492188 309.71875 156.757812 C 330.179688 146.878906 345.261719 129.535156 344.976562 100.539062 L 344.964844 99.816406 C 344.792969 82.632812 339.023438 69.441406 329.636719 59.507812 C 315.894531 44.960938 295.253906 37.289062 266.070312 37.582031 L 147.015625 38.777344 L 168.082031 83.3125 L 114.179688 83.855469 L 17.878906 337.277344 L 85.53125 336.597656 L 101.664062 291.679688 L 120.027344 237.421875 L 139.066406 183.996094 L 153.234375 139.953125 L 153.53125 139.953125 L 170.964844 186.515625 L 209.8125 186.515625 L 260.261719 186.25 C 281.820312 186.042969 291.855469 194.890625 291.992188 208.496094 L 292 209.210938 C 292.148438 223.894531 280.949219 232.238281 261.386719 232.4375 L 209.8125 232.769531 L 195.976562 232.855469 L 184.382812 232.855469 L 205.988281 289.421875 L 218.496094 288.734375 L 269.242188 288.222656 C 324.621094 287.675781 356.863281 261.207031 356.429688 218.238281 L 356.425781 217.523438 " fill-opacity="1" fill-rule="nonzero"/></g></svg>