<svg xmlns="http://www.w3.org/2000/svg" xmlns:xlink="http://www.w3.org/1999/xlink" width="500" zoomAndPan="magnify" viewBox="0 0 375 374.999991" height="500" preserveAspectRatio="xMidYMid meet" version="1.0"><defs><g/><clipPath id="4789774b23"><path d="M 0 172.601562 L 375 172.601562 L 375 202 L 0 202 Z M 0 172.601562 " clip-rule="nonzero"/></clipPath></defs><g fill="#292929" fill-opacity="1"><g transform="translate(23.601565, 266.449942)"><g><path d="M 181.96875 -9.234375 L 181.96875 0 L 118.40625 0 L 82.546875 -70.671875 L 83.328125 -71.203125 C 79.285156 -70.847656 73.570312 -70.5 66.1875 -70.15625 L 66.1875 -9.5 L 79.109375 -9.234375 L 79.109375 0 L 9.5 0 L 9.5 -9.234375 L 22.421875 -9.5 L 22.421875 -167.203125 L 9.5 -167.46875 L 9.5 -176.6875 L 60.390625 -176.171875 L 99.6875 -179.328125 C 112.34375 -179.328125 123.195312 -177 132.25 -172.34375 C 141.3125 -167.6875 148.171875 -161.441406 152.828125 -153.609375 C 157.484375 -145.785156 159.8125 -137.128906 159.8125 -127.640625 C 159.8125 -116.742188 156.644531 -107.25 150.3125 -99.15625 C 143.988281 -91.070312 134.5 -84.566406 121.84375 -79.640625 L 169.046875 -9.5 Z M 66.1875 -80.4375 C 80.78125 -81.3125 92.207031 -85.304688 100.46875 -92.421875 C 108.738281 -99.546875 112.875 -109.175781 112.875 -121.3125 C 112.875 -129.925781 110.847656 -137.75 106.796875 -144.78125 C 102.753906 -151.8125 97.21875 -157.347656 90.1875 -161.390625 C 83.15625 -165.441406 75.15625 -167.46875 66.1875 -167.46875 Z M 66.1875 -80.4375 "/></g></g></g><g fill="#292929" fill-opacity="1"><g transform="translate(206.091996, 266.449942)"><g><path d="M 57.234375 -148.734375 C 57.234375 -143.109375 58.8125 -137.921875 61.96875 -133.171875 C 65.132812 -128.429688 69.09375 -124.210938 73.84375 -120.515625 C 78.59375 -116.828125 85.097656 -112.257812 93.359375 -106.8125 C 103.023438 -100.476562 110.757812 -94.894531 116.5625 -90.0625 C 122.363281 -85.226562 127.328125 -79.425781 131.453125 -72.65625 C 135.585938 -65.882812 137.65625 -58.28125 137.65625 -49.84375 C 137.65625 -40.519531 135.101562 -31.769531 130 -23.59375 C 124.90625 -15.425781 117.257812 -8.789062 107.0625 -3.6875 C 96.875 1.40625 84.570312 3.953125 70.15625 3.953125 C 39.207031 3.953125 17.226562 -8.351562 4.21875 -32.96875 L 34.015625 -55.90625 C 42.453125 -38.5 51.945312 -21.625 62.5 -5.28125 L 62.765625 -5.28125 C 67.859375 -5.28125 72.601562 -6.640625 77 -9.359375 C 81.394531 -12.085938 84.910156 -15.648438 87.546875 -20.046875 C 90.191406 -24.441406 91.515625 -29.097656 91.515625 -34.015625 C 91.515625 -39.296875 89.972656 -44.175781 86.890625 -48.65625 C 83.816406 -53.132812 79.992188 -57.085938 75.421875 -60.515625 C 70.847656 -63.953125 64.609375 -68.128906 56.703125 -73.046875 C 47.203125 -79.023438 39.550781 -84.300781 33.75 -88.875 C 27.945312 -93.445312 22.976562 -99.03125 18.84375 -105.625 C 14.71875 -112.21875 12.65625 -119.820312 12.65625 -128.4375 C 12.65625 -138.101562 15.421875 -146.9375 20.953125 -154.9375 C 26.492188 -162.9375 34.40625 -169.21875 44.6875 -173.78125 C 54.976562 -178.351562 67.070312 -180.640625 80.96875 -180.640625 C 94.5 -180.640625 105.613281 -178.484375 114.3125 -174.171875 C 123.019531 -169.867188 130.890625 -163.765625 137.921875 -155.859375 L 110.234375 -127.90625 C 100.910156 -143.375 91.503906 -157.878906 82.015625 -171.421875 C 74.109375 -171.421875 68 -169.265625 63.6875 -164.953125 C 59.382812 -160.648438 57.234375 -155.242188 57.234375 -148.734375 Z M 57.234375 -148.734375 "/></g></g></g><g clip-path="url(#4789774b23)"><path fill="#e8e7e2" d="M -113.761719 172.601562 L 488.429688 172.601562 L 488.429688 201.683594 L -113.761719 201.683594 Z M -113.761719 172.601562 " fill-opacity="1" fill-rule="nonzero"/></g><g fill="#292929" fill-opacity="1"><g transform="translate(9.463745, 194.249987)"><g><path d="M 10.875 0 L 8.046875 -4.03125 C 7.929688 -4.019531 7.753906 -4.015625 7.515625 -4.015625 L 4.40625 -4.015625 L 4.40625 0 L 1.84375 0 L 1.84375 -13.78125 L 7.515625 -13.78125 C 8.710938 -13.78125 9.753906 -13.582031 10.640625 -13.1875 C 11.523438 -12.789062 12.203125 -12.222656 12.671875 -11.484375 C 13.148438 -10.753906 13.390625 -9.882812 13.390625 -8.875 C 13.390625 -7.84375 13.132812 -6.953125 12.625 -6.203125 C 12.125 -5.453125 11.398438 -4.894531 10.453125 -4.53125 L 13.625 0 Z M 10.8125 -8.875 C 10.8125 -9.757812 10.519531 -10.4375 9.9375 -10.90625 C 9.363281 -11.375 8.519531 -11.609375 7.40625 -11.609375 L 4.40625 -11.609375 L 4.40625 -6.125 L 7.40625 -6.125 C 8.519531 -6.125 9.363281 -6.363281 9.9375 -6.84375 C 10.519531 -7.320312 10.8125 -8 10.8125 -8.875 Z M 10.8125 -8.875 "/></g></g></g><g fill="#292929" fill-opacity="1"><g transform="translate(35.669357, 194.249987)"><g><path d="M 1.84375 -13.78125 L 4.40625 -13.78125 L 4.40625 0 L 1.84375 0 Z M 1.84375 -13.78125 "/></g></g></g><g fill="#292929" fill-opacity="1"><g transform="translate(53.763764, 194.249987)"><g><path d="M 8.234375 0.203125 C 6.835938 0.203125 5.578125 -0.101562 4.453125 -0.71875 C 3.335938 -1.332031 2.457031 -2.175781 1.8125 -3.25 C 1.175781 -4.320312 0.859375 -5.535156 0.859375 -6.890625 C 0.859375 -8.242188 1.179688 -9.457031 1.828125 -10.53125 C 2.472656 -11.601562 3.351562 -12.445312 4.46875 -13.0625 C 5.59375 -13.675781 6.851562 -13.984375 8.25 -13.984375 C 9.375 -13.984375 10.398438 -13.785156 11.328125 -13.390625 C 12.265625 -12.992188 13.054688 -12.421875 13.703125 -11.671875 L 12.046875 -10.125 C 11.046875 -11.195312 9.816406 -11.734375 8.359375 -11.734375 C 7.421875 -11.734375 6.578125 -11.523438 5.828125 -11.109375 C 5.078125 -10.703125 4.488281 -10.128906 4.0625 -9.390625 C 3.644531 -8.648438 3.4375 -7.816406 3.4375 -6.890625 C 3.4375 -5.960938 3.644531 -5.128906 4.0625 -4.390625 C 4.488281 -3.648438 5.078125 -3.070312 5.828125 -2.65625 C 6.578125 -2.25 7.421875 -2.046875 8.359375 -2.046875 C 9.816406 -2.046875 11.046875 -2.59375 12.046875 -3.6875 L 13.703125 -2.109375 C 13.054688 -1.359375 12.265625 -0.785156 11.328125 -0.390625 C 10.390625 0.00390625 9.359375 0.203125 8.234375 0.203125 Z M 8.234375 0.203125 "/></g></g></g><g fill="#292929" fill-opacity="1"><g transform="translate(79.890629, 194.249987)"><g><path d="M 10.78125 -3.1875 L 3.890625 -3.1875 L 2.546875 0 L -0.09375 0 L 6.109375 -13.78125 L 8.625 -13.78125 L 14.84375 0 L 12.171875 0 Z M 9.9375 -5.203125 L 7.34375 -11.21875 L 4.765625 -5.203125 Z M 9.9375 -5.203125 "/></g></g></g><g fill="#292929" fill-opacity="1"><g transform="translate(106.450619, 194.249987)"><g><path d="M 10.875 0 L 8.046875 -4.03125 C 7.929688 -4.019531 7.753906 -4.015625 7.515625 -4.015625 L 4.40625 -4.015625 L 4.40625 0 L 1.84375 0 L 1.84375 -13.78125 L 7.515625 -13.78125 C 8.710938 -13.78125 9.753906 -13.582031 10.640625 -13.1875 C 11.523438 -12.789062 12.203125 -12.222656 12.671875 -11.484375 C 13.148438 -10.753906 13.390625 -9.882812 13.390625 -8.875 C 13.390625 -7.84375 13.132812 -6.953125 12.625 -6.203125 C 12.125 -5.453125 11.398438 -4.894531 10.453125 -4.53125 L 13.625 0 Z M 10.8125 -8.875 C 10.8125 -9.757812 10.519531 -10.4375 9.9375 -10.90625 C 9.363281 -11.375 8.519531 -11.609375 7.40625 -11.609375 L 4.40625 -11.609375 L 4.40625 -6.125 L 7.40625 -6.125 C 8.519531 -6.125 9.363281 -6.363281 9.9375 -6.84375 C 10.519531 -7.320312 10.8125 -8 10.8125 -8.875 Z M 10.8125 -8.875 "/></g></g></g><g fill="#292929" fill-opacity="1"><g transform="translate(132.656226, 194.249987)"><g><path d="M 1.84375 -13.78125 L 7.875 -13.78125 C 9.34375 -13.78125 10.644531 -13.492188 11.78125 -12.921875 C 12.925781 -12.347656 13.8125 -11.539062 14.4375 -10.5 C 15.070312 -9.457031 15.390625 -8.253906 15.390625 -6.890625 C 15.390625 -5.523438 15.070312 -4.320312 14.4375 -3.28125 C 13.8125 -2.238281 12.925781 -1.429688 11.78125 -0.859375 C 10.644531 -0.285156 9.34375 0 7.875 0 L 1.84375 0 Z M 7.75 -2.171875 C 8.757812 -2.171875 9.648438 -2.363281 10.421875 -2.75 C 11.191406 -3.132812 11.78125 -3.679688 12.1875 -4.390625 C 12.601562 -5.109375 12.8125 -5.941406 12.8125 -6.890625 C 12.8125 -7.835938 12.601562 -8.664062 12.1875 -9.375 C 11.78125 -10.09375 11.191406 -10.644531 10.421875 -11.03125 C 9.648438 -11.414062 8.757812 -11.609375 7.75 -11.609375 L 4.40625 -11.609375 L 4.40625 -2.171875 Z M 7.75 -2.171875 "/></g></g></g><g fill="#292929" fill-opacity="1"><g transform="translate(160.732151, 194.249987)"><g><path d="M 8.28125 0.203125 C 6.882812 0.203125 5.617188 -0.101562 4.484375 -0.71875 C 3.359375 -1.332031 2.472656 -2.175781 1.828125 -3.25 C 1.179688 -4.332031 0.859375 -5.546875 0.859375 -6.890625 C 0.859375 -8.234375 1.179688 -9.441406 1.828125 -10.515625 C 2.472656 -11.597656 3.359375 -12.445312 4.484375 -13.0625 C 5.617188 -13.675781 6.882812 -13.984375 8.28125 -13.984375 C 9.6875 -13.984375 10.953125 -13.675781 12.078125 -13.0625 C 13.210938 -12.445312 14.097656 -11.601562 14.734375 -10.53125 C 15.378906 -9.457031 15.703125 -8.242188 15.703125 -6.890625 C 15.703125 -5.535156 15.378906 -4.320312 14.734375 -3.25 C 14.097656 -2.175781 13.210938 -1.332031 12.078125 -0.71875 C 10.953125 -0.101562 9.6875 0.203125 8.28125 0.203125 Z M 8.28125 -2.046875 C 9.207031 -2.046875 10.035156 -2.25 10.765625 -2.65625 C 11.503906 -3.070312 12.082031 -3.648438 12.5 -4.390625 C 12.914062 -5.140625 13.125 -5.972656 13.125 -6.890625 C 13.125 -7.804688 12.914062 -8.632812 12.5 -9.375 C 12.082031 -10.125 11.503906 -10.703125 10.765625 -11.109375 C 10.035156 -11.523438 9.207031 -11.734375 8.28125 -11.734375 C 7.363281 -11.734375 6.535156 -11.523438 5.796875 -11.109375 C 5.066406 -10.703125 4.488281 -10.125 4.0625 -9.375 C 3.644531 -8.632812 3.4375 -7.804688 3.4375 -6.890625 C 3.4375 -5.972656 3.644531 -5.140625 4.0625 -4.390625 C 4.488281 -3.648438 5.066406 -3.070312 5.796875 -2.65625 C 6.535156 -2.25 7.363281 -2.046875 8.28125 -2.046875 Z M 8.28125 -2.046875 "/></g></g></g><g fill="#292929" fill-opacity="1"><g transform="translate(189.123064, 194.249987)"><g/></g></g><g fill="#292929" fill-opacity="1"><g transform="translate(206.370911, 194.249987)"><g><path d="M 6.125 0.203125 C 5.0625 0.203125 4.035156 0.0507812 3.046875 -0.25 C 2.054688 -0.550781 1.269531 -0.953125 0.6875 -1.453125 L 1.578125 -3.4375 C 2.140625 -3 2.828125 -2.632812 3.640625 -2.34375 C 4.460938 -2.0625 5.289062 -1.921875 6.125 -1.921875 C 7.144531 -1.921875 7.90625 -2.082031 8.40625 -2.40625 C 8.914062 -2.738281 9.171875 -3.175781 9.171875 -3.71875 C 9.171875 -4.113281 9.03125 -4.4375 8.75 -4.6875 C 8.46875 -4.945312 8.109375 -5.148438 7.671875 -5.296875 C 7.242188 -5.441406 6.65625 -5.601562 5.90625 -5.78125 C 4.851562 -6.03125 4 -6.28125 3.34375 -6.53125 C 2.695312 -6.78125 2.140625 -7.171875 1.671875 -7.703125 C 1.210938 -8.234375 0.984375 -8.953125 0.984375 -9.859375 C 0.984375 -10.617188 1.1875 -11.3125 1.59375 -11.9375 C 2.007812 -12.5625 2.632812 -13.054688 3.46875 -13.421875 C 4.300781 -13.796875 5.320312 -13.984375 6.53125 -13.984375 C 7.375 -13.984375 8.203125 -13.875 9.015625 -13.65625 C 9.828125 -13.445312 10.53125 -13.144531 11.125 -12.75 L 10.3125 -10.765625 C 9.707031 -11.117188 9.078125 -11.390625 8.421875 -11.578125 C 7.765625 -11.765625 7.128906 -11.859375 6.515625 -11.859375 C 5.503906 -11.859375 4.753906 -11.6875 4.265625 -11.34375 C 3.773438 -11 3.53125 -10.546875 3.53125 -9.984375 C 3.53125 -9.585938 3.671875 -9.265625 3.953125 -9.015625 C 4.234375 -8.765625 4.585938 -8.566406 5.015625 -8.421875 C 5.453125 -8.273438 6.046875 -8.113281 6.796875 -7.9375 C 7.816406 -7.695312 8.65625 -7.445312 9.3125 -7.1875 C 9.96875 -6.9375 10.523438 -6.546875 10.984375 -6.015625 C 11.453125 -5.492188 11.6875 -4.785156 11.6875 -3.890625 C 11.6875 -3.128906 11.476562 -2.441406 11.0625 -1.828125 C 10.65625 -1.210938 10.03125 -0.71875 9.1875 -0.34375 C 8.351562 0.0195312 7.332031 0.203125 6.125 0.203125 Z M 6.125 0.203125 "/></g></g></g><g fill="#292929" fill-opacity="1"><g transform="translate(230.568412, 194.249987)"><g><path d="M 10.78125 -3.1875 L 3.890625 -3.1875 L 2.546875 0 L -0.09375 0 L 6.109375 -13.78125 L 8.625 -13.78125 L 14.84375 0 L 12.171875 0 Z M 9.9375 -5.203125 L 7.34375 -11.21875 L 4.765625 -5.203125 Z M 9.9375 -5.203125 "/></g></g></g><g fill="#292929" fill-opacity="1"><g transform="translate(257.128407, 194.249987)"><g><path d="M 1.84375 -13.78125 L 4.40625 -13.78125 L 4.40625 -2.171875 L 11.609375 -2.171875 L 11.609375 0 L 1.84375 0 Z M 1.84375 -13.78125 "/></g></g></g><g fill="#292929" fill-opacity="1"><g transform="translate(280.735278, 194.249987)"><g><path d="M 1.84375 -13.78125 L 4.40625 -13.78125 L 4.40625 0 L 1.84375 0 Z M 1.84375 -13.78125 "/></g></g></g><g fill="#292929" fill-opacity="1"><g transform="translate(298.829691, 194.249987)"><g><path d="M 14.09375 -13.78125 L 14.09375 0 L 11.984375 0 L 4.390625 -9.328125 L 4.390625 0 L 1.84375 0 L 1.84375 -13.78125 L 3.953125 -13.78125 L 11.5625 -4.453125 L 11.5625 -13.78125 Z M 14.09375 -13.78125 "/></g></g></g><g fill="#292929" fill-opacity="1"><g transform="translate(326.590607, 194.249987)"><g><path d="M 10.78125 -3.1875 L 3.890625 -3.1875 L 2.546875 0 L -0.09375 0 L 6.109375 -13.78125 L 8.625 -13.78125 L 14.84375 0 L 12.171875 0 Z M 9.9375 -5.203125 L 7.34375 -11.21875 L 4.765625 -5.203125 Z M 9.9375 -5.203125 "/></g></g></g><g fill="#292929" fill-opacity="1"><g transform="translate(353.150603, 194.249987)"><g><path d="M 6.125 0.203125 C 5.0625 0.203125 4.035156 0.0507812 3.046875 -0.25 C 2.054688 -0.550781 1.269531 -0.953125 0.6875 -1.453125 L 1.578125 -3.4375 C 2.140625 -3 2.828125 -2.632812 3.640625 -2.34375 C 4.460938 -2.0625 5.289062 -1.921875 6.125 -1.921875 C 7.144531 -1.921875 7.90625 -2.082031 8.40625 -2.40625 C 8.914062 -2.738281 9.171875 -3.175781 9.171875 -3.71875 C 9.171875 -4.113281 9.03125 -4.4375 8.75 -4.6875 C 8.46875 -4.945312 8.109375 -5.148438 7.671875 -5.296875 C 7.242188 -5.441406 6.65625 -5.601562 5.90625 -5.78125 C 4.851562 -6.03125 4 -6.28125 3.34375 -6.53125 C 2.695312 -6.78125 2.140625 -7.171875 1.671875 -7.703125 C 1.210938 -8.234375 0.984375 -8.953125 0.984375 -9.859375 C 0.984375 -10.617188 1.1875 -11.3125 1.59375 -11.9375 C 2.007812 -12.5625 2.632812 -13.054688 3.46875 -13.421875 C 4.300781 -13.796875 5.320312 -13.984375 6.53125 -13.984375 C 7.375 -13.984375 8.203125 -13.875 9.015625 -13.65625 C 9.828125 -13.445312 10.53125 -13.144531 11.125 -12.75 L 10.3125 -10.765625 C 9.707031 -11.117188 9.078125 -11.390625 8.421875 -11.578125 C 7.765625 -11.765625 7.128906 -11.859375 6.515625 -11.859375 C 5.503906 -11.859375 4.753906 -11.6875 4.265625 -11.34375 C 3.773438 -11 3.53125 -10.546875 3.53125 -9.984375 C 3.53125 -9.585938 3.671875 -9.265625 3.953125 -9.015625 C 4.234375 -8.765625 4.585938 -8.566406 5.015625 -8.421875 C 5.453125 -8.273438 6.046875 -8.113281 6.796875 -7.9375 C 7.816406 -7.695312 8.65625 -7.445312 9.3125 -7.1875 C 9.96875 -6.9375 10.523438 -6.546875 10.984375 -6.015625 C 11.453125 -5.492188 11.6875 -4.785156 11.6875 -3.890625 C 11.6875 -3.128906 11.476562 -2.441406 11.0625 -1.828125 C 10.65625 -1.210938 10.03125 -0.71875 9.1875 -0.34375 C 8.351562 0.0195312 7.332031 0.203125 6.125 0.203125 Z M 6.125 0.203125 "/></g></g></g><g fill="#292929" fill-opacity="1"><g transform="translate(41.269862, 292.062534)"><g><path d="M 12.015625 -2.453125 C 11.523438 -1.609375 10.835938 -0.960938 9.953125 -0.515625 C 9.078125 -0.0664062 8.09375 0.15625 7 0.15625 C 5.707031 0.15625 4.597656 -0.0859375 3.671875 -0.578125 C 2.742188 -1.078125 2.03125 -1.789062 1.53125 -2.71875 C 1.039062 -3.65625 0.796875 -4.773438 0.796875 -6.078125 C 0.796875 -7.421875 1.066406 -8.59375 1.609375 -9.59375 C 2.160156 -10.601562 2.921875 -11.394531 3.890625 -11.96875 C 4.867188 -12.539062 6 -12.828125 7.28125 -12.828125 C 8.375 -12.828125 9.304688 -12.617188 10.078125 -12.203125 C 10.859375 -11.785156 11.515625 -11.15625 12.046875 -10.3125 L 10.265625 -9.03125 C 9.941406 -9.625 9.519531 -10.054688 9 -10.328125 C 8.476562 -10.597656 7.898438 -10.734375 7.265625 -10.734375 C 6.460938 -10.734375 5.75 -10.535156 5.125 -10.140625 C 4.507812 -9.753906 4.023438 -9.210938 3.671875 -8.515625 C 3.328125 -7.828125 3.15625 -7.023438 3.15625 -6.109375 C 3.15625 -4.785156 3.492188 -3.753906 4.171875 -3.015625 C 4.859375 -2.285156 5.8125 -1.921875 7.03125 -1.921875 C 7.707031 -1.921875 8.332031 -2.070312 8.90625 -2.375 C 9.476562 -2.6875 9.941406 -3.160156 10.296875 -3.796875 Z M 12.015625 -2.453125 "/></g></g></g><g fill="#292929" fill-opacity="1"><g transform="translate(66.72155, 292.062534)"><g><path d="M 6.921875 0.15625 C 5.640625 0.164062 4.539062 -0.0703125 3.625 -0.5625 C 2.71875 -1.050781 2.019531 -1.765625 1.53125 -2.703125 C 1.039062 -3.640625 0.796875 -4.769531 0.796875 -6.09375 C 0.796875 -7.40625 1.054688 -8.566406 1.578125 -9.578125 C 2.109375 -10.597656 2.847656 -11.394531 3.796875 -11.96875 C 4.753906 -12.539062 5.890625 -12.828125 7.203125 -12.828125 C 8.359375 -12.828125 9.375 -12.5625 10.25 -12.03125 C 11.132812 -11.507812 11.816406 -10.78125 12.296875 -9.84375 C 12.785156 -8.914062 13.03125 -7.828125 13.03125 -6.578125 C 13.03125 -5.210938 12.765625 -4.023438 12.234375 -3.015625 C 11.710938 -2.015625 10.988281 -1.234375 10.0625 -0.671875 C 9.144531 -0.117188 8.097656 0.15625 6.921875 0.15625 Z M 6.859375 -1.921875 C 7.609375 -1.921875 8.269531 -2.101562 8.84375 -2.46875 C 9.414062 -2.84375 9.863281 -3.375 10.1875 -4.0625 C 10.519531 -4.75 10.6875 -5.585938 10.6875 -6.578125 C 10.6875 -7.847656 10.363281 -8.863281 9.71875 -9.625 C 9.082031 -10.382812 8.222656 -10.765625 7.140625 -10.765625 C 6.367188 -10.765625 5.679688 -10.566406 5.078125 -10.171875 C 4.484375 -9.773438 4.015625 -9.234375 3.671875 -8.546875 C 3.328125 -7.859375 3.15625 -7.050781 3.15625 -6.125 C 3.15625 -4.78125 3.484375 -3.742188 4.140625 -3.015625 C 4.796875 -2.285156 5.703125 -1.921875 6.859375 -1.921875 Z M 6.859375 -1.921875 "/></g></g></g><g fill="#292929" fill-opacity="1"><g transform="translate(94.114634, 292.062534)"><g><path d="M 9.625 -12.640625 L 11.84375 -12.640625 L 11.84375 0 L 9.8125 0 L 3.53125 -8.8125 L 3.53125 0 L 1.296875 0 L 1.296875 -12.640625 L 3.328125 -12.640625 L 9.625 -3.828125 Z M 9.625 -12.640625 "/></g></g></g><g fill="#292929" fill-opacity="1"><g transform="translate(120.813094, 292.062534)"><g><path d="M 5.234375 0.15625 C 3.753906 0.15625 2.597656 -0.171875 1.765625 -0.828125 C 0.929688 -1.492188 0.457031 -2.472656 0.34375 -3.765625 L 2.515625 -4.078125 C 2.722656 -2.554688 3.664062 -1.796875 5.34375 -1.796875 C 6.070312 -1.796875 6.632812 -1.941406 7.03125 -2.234375 C 7.4375 -2.523438 7.640625 -2.929688 7.640625 -3.453125 C 7.640625 -3.929688 7.4375 -4.289062 7.03125 -4.53125 C 6.632812 -4.769531 5.988281 -5 5.09375 -5.21875 C 4.257812 -5.414062 3.546875 -5.65625 2.953125 -5.9375 C 2.359375 -6.21875 1.90625 -6.59375 1.59375 -7.0625 C 1.28125 -7.539062 1.125 -8.171875 1.125 -8.953125 C 1.125 -9.703125 1.316406 -10.367188 1.703125 -10.953125 C 2.085938 -11.535156 2.617188 -11.992188 3.296875 -12.328125 C 3.972656 -12.660156 4.753906 -12.828125 5.640625 -12.828125 C 6.816406 -12.828125 7.78125 -12.515625 8.53125 -11.890625 C 9.28125 -11.273438 9.71875 -10.425781 9.84375 -9.34375 L 7.8125 -9.015625 C 7.570312 -10.242188 6.816406 -10.859375 5.546875 -10.859375 C 4.921875 -10.859375 4.414062 -10.695312 4.03125 -10.375 C 3.644531 -10.0625 3.453125 -9.644531 3.453125 -9.125 C 3.453125 -8.601562 3.640625 -8.203125 4.015625 -7.921875 C 4.398438 -7.640625 5.050781 -7.390625 5.96875 -7.171875 C 6.789062 -6.984375 7.5 -6.757812 8.09375 -6.5 C 8.6875 -6.25 9.144531 -5.898438 9.46875 -5.453125 C 9.789062 -5.003906 9.953125 -4.382812 9.953125 -3.59375 C 9.953125 -2.863281 9.753906 -2.210938 9.359375 -1.640625 C 8.960938 -1.078125 8.410156 -0.632812 7.703125 -0.3125 C 6.992188 0 6.171875 0.15625 5.234375 0.15625 Z M 5.234375 0.15625 "/></g></g></g><g fill="#292929" fill-opacity="1"><g transform="translate(144.804284, 292.062534)"><g><path d="M 10.46875 -12.640625 L 10.1875 -10.609375 L 6.265625 -10.609375 L 6.265625 0 L 3.953125 0 L 3.953125 -10.609375 L -0.109375 -10.609375 L -0.109375 -12.640625 Z M 10.46875 -12.640625 "/></g></g></g><g fill="#292929" fill-opacity="1"><g transform="translate(168.581755, 292.062534)"><g><path d="M 11.296875 -2.203125 L 11.828125 -0.40625 C 11.585938 -0.226562 11.296875 -0.09375 10.953125 0 C 10.609375 0.101562 10.25 0.15625 9.875 0.15625 C 8.539062 0.15625 7.492188 -0.429688 6.734375 -1.609375 L 4.890625 -4.421875 C 4.703125 -4.710938 4.503906 -4.914062 4.296875 -5.03125 C 4.097656 -5.15625 3.882812 -5.21875 3.65625 -5.21875 L 3.5625 -5.21875 L 3.5625 0 L 1.296875 0 L 1.296875 -12.640625 L 5.234375 -12.640625 C 6.835938 -12.640625 8.050781 -12.304688 8.875 -11.640625 C 9.707031 -10.984375 10.125 -10.070312 10.125 -8.90625 C 10.125 -8.207031 9.96875 -7.601562 9.65625 -7.09375 C 9.34375 -6.59375 8.921875 -6.191406 8.390625 -5.890625 C 7.859375 -5.597656 7.253906 -5.410156 6.578125 -5.328125 C 6.929688 -5.140625 7.253906 -4.816406 7.546875 -4.359375 L 8.546875 -2.890625 C 8.804688 -2.503906 9.050781 -2.238281 9.28125 -2.09375 C 9.519531 -1.957031 9.816406 -1.890625 10.171875 -1.890625 C 10.585938 -1.890625 10.960938 -1.992188 11.296875 -2.203125 Z M 5.078125 -10.765625 L 3.5625 -10.765625 L 3.5625 -7.03125 L 4.96875 -7.03125 C 5.945312 -7.03125 6.664062 -7.175781 7.125 -7.46875 C 7.582031 -7.769531 7.8125 -8.25 7.8125 -8.90625 C 7.8125 -10.144531 6.898438 -10.765625 5.078125 -10.765625 Z M 5.078125 -10.765625 "/></g></g></g><g fill="#292929" fill-opacity="1"><g transform="translate(193.3032, 292.062534)"><g><path d="M 9.703125 -12.640625 L 12 -12.640625 L 12.015625 -5.90625 C 12.035156 -4.65625 11.832031 -3.570312 11.40625 -2.65625 C 10.988281 -1.75 10.378906 -1.050781 9.578125 -0.5625 C 8.773438 -0.0820312 7.804688 0.15625 6.671875 0.15625 C 4.867188 0.15625 3.515625 -0.296875 2.609375 -1.203125 C 1.703125 -2.109375 1.25 -3.492188 1.25 -5.359375 L 1.25 -12.640625 L 3.5625 -12.640625 L 3.5625 -5.546875 C 3.5625 -4.273438 3.816406 -3.351562 4.328125 -2.78125 C 4.847656 -2.207031 5.617188 -1.921875 6.640625 -1.921875 C 7.671875 -1.921875 8.445312 -2.253906 8.96875 -2.921875 C 9.488281 -3.585938 9.738281 -4.617188 9.71875 -6.015625 Z M 9.703125 -12.640625 "/></g></g></g><g fill="#292929" fill-opacity="1"><g transform="translate(220.12634, 292.062534)"><g><path d="M 12.015625 -2.453125 C 11.523438 -1.609375 10.835938 -0.960938 9.953125 -0.515625 C 9.078125 -0.0664062 8.09375 0.15625 7 0.15625 C 5.707031 0.15625 4.597656 -0.0859375 3.671875 -0.578125 C 2.742188 -1.078125 2.03125 -1.789062 1.53125 -2.71875 C 1.039062 -3.65625 0.796875 -4.773438 0.796875 -6.078125 C 0.796875 -7.421875 1.066406 -8.59375 1.609375 -9.59375 C 2.160156 -10.601562 2.921875 -11.394531 3.890625 -11.96875 C 4.867188 -12.539062 6 -12.828125 7.28125 -12.828125 C 8.375 -12.828125 9.304688 -12.617188 10.078125 -12.203125 C 10.859375 -11.785156 11.515625 -11.15625 12.046875 -10.3125 L 10.265625 -9.03125 C 9.941406 -9.625 9.519531 -10.054688 9 -10.328125 C 8.476562 -10.597656 7.898438 -10.734375 7.265625 -10.734375 C 6.460938 -10.734375 5.75 -10.535156 5.125 -10.140625 C 4.507812 -9.753906 4.023438 -9.210938 3.671875 -8.515625 C 3.328125 -7.828125 3.15625 -7.023438 3.15625 -6.109375 C 3.15625 -4.785156 3.492188 -3.753906 4.171875 -3.015625 C 4.859375 -2.285156 5.8125 -1.921875 7.03125 -1.921875 C 7.707031 -1.921875 8.332031 -2.070312 8.90625 -2.375 C 9.476562 -2.6875 9.941406 -3.160156 10.296875 -3.796875 Z M 12.015625 -2.453125 "/></g></g></g><g fill="#292929" fill-opacity="1"><g transform="translate(245.578033, 292.062534)"><g><path d="M 10.46875 -12.640625 L 10.1875 -10.609375 L 6.265625 -10.609375 L 6.265625 0 L 3.953125 0 L 3.953125 -10.609375 L -0.109375 -10.609375 L -0.109375 -12.640625 Z M 10.46875 -12.640625 "/></g></g></g><g fill="#292929" fill-opacity="1"><g transform="translate(269.355504, 292.062534)"><g><path d="M 6.921875 0.15625 C 5.640625 0.164062 4.539062 -0.0703125 3.625 -0.5625 C 2.71875 -1.050781 2.019531 -1.765625 1.53125 -2.703125 C 1.039062 -3.640625 0.796875 -4.769531 0.796875 -6.09375 C 0.796875 -7.40625 1.054688 -8.566406 1.578125 -9.578125 C 2.109375 -10.597656 2.847656 -11.394531 3.796875 -11.96875 C 4.753906 -12.539062 5.890625 -12.828125 7.203125 -12.828125 C 8.359375 -12.828125 9.375 -12.5625 10.25 -12.03125 C 11.132812 -11.507812 11.816406 -10.78125 12.296875 -9.84375 C 12.785156 -8.914062 13.03125 -7.828125 13.03125 -6.578125 C 13.03125 -5.210938 12.765625 -4.023438 12.234375 -3.015625 C 11.710938 -2.015625 10.988281 -1.234375 10.0625 -0.671875 C 9.144531 -0.117188 8.097656 0.15625 6.921875 0.15625 Z M 6.859375 -1.921875 C 7.609375 -1.921875 8.269531 -2.101562 8.84375 -2.46875 C 9.414062 -2.84375 9.863281 -3.375 10.1875 -4.0625 C 10.519531 -4.75 10.6875 -5.585938 10.6875 -6.578125 C 10.6875 -7.847656 10.363281 -8.863281 9.71875 -9.625 C 9.082031 -10.382812 8.222656 -10.765625 7.140625 -10.765625 C 6.367188 -10.765625 5.679688 -10.566406 5.078125 -10.171875 C 4.484375 -9.773438 4.015625 -9.234375 3.671875 -8.546875 C 3.328125 -7.859375 3.15625 -7.050781 3.15625 -6.125 C 3.15625 -4.78125 3.484375 -3.742188 4.140625 -3.015625 C 4.796875 -2.285156 5.703125 -1.921875 6.859375 -1.921875 Z M 6.859375 -1.921875 "/></g></g></g><g fill="#292929" fill-opacity="1"><g transform="translate(296.748594, 292.062534)"><g><path d="M 11.296875 -2.203125 L 11.828125 -0.40625 C 11.585938 -0.226562 11.296875 -0.09375 10.953125 0 C 10.609375 0.101562 10.25 0.15625 9.875 0.15625 C 8.539062 0.15625 7.492188 -0.429688 6.734375 -1.609375 L 4.890625 -4.421875 C 4.703125 -4.710938 4.503906 -4.914062 4.296875 -5.03125 C 4.097656 -5.15625 3.882812 -5.21875 3.65625 -5.21875 L 3.5625 -5.21875 L 3.5625 0 L 1.296875 0 L 1.296875 -12.640625 L 5.234375 -12.640625 C 6.835938 -12.640625 8.050781 -12.304688 8.875 -11.640625 C 9.707031 -10.984375 10.125 -10.070312 10.125 -8.90625 C 10.125 -8.207031 9.96875 -7.601562 9.65625 -7.09375 C 9.34375 -6.59375 8.921875 -6.191406 8.390625 -5.890625 C 7.859375 -5.597656 7.253906 -5.410156 6.578125 -5.328125 C 6.929688 -5.140625 7.253906 -4.816406 7.546875 -4.359375 L 8.546875 -2.890625 C 8.804688 -2.503906 9.050781 -2.238281 9.28125 -2.09375 C 9.519531 -1.957031 9.816406 -1.890625 10.171875 -1.890625 C 10.585938 -1.890625 10.960938 -1.992188 11.296875 -2.203125 Z M 5.078125 -10.765625 L 3.5625 -10.765625 L 3.5625 -7.03125 L 4.96875 -7.03125 C 5.945312 -7.03125 6.664062 -7.175781 7.125 -7.46875 C 7.582031 -7.769531 7.8125 -8.25 7.8125 -8.90625 C 7.8125 -10.144531 6.898438 -10.765625 5.078125 -10.765625 Z M 5.078125 -10.765625 "/></g></g></g><g fill="#292929" fill-opacity="1"><g transform="translate(321.470039, 292.062534)"><g><path d="M -0.171875 0 L 5.21875 -12.640625 L 7.171875 -12.640625 L 12.359375 0 L 10.015625 0 L 8.875 -2.890625 L 3.34375 -2.890625 L 2.171875 0 Z M 4.15625 -4.828125 L 8.125 -4.828125 L 6.15625 -9.796875 Z M 4.15625 -4.828125 "/></g></g></g></svg>