<svg xmlns="http://www.w3.org/2000/svg" xmlns:xlink="http://www.w3.org/1999/xlink" width="500" zoomAndPan="magnify" viewBox="0 0 375 374.999991" height="500" preserveAspectRatio="xMidYMid meet" version="1.0"><defs><g/></defs><rect x="-37.5" width="450" fill="#ffffff" y="-37.499999" height="449.999989" fill-opacity="1"/><rect x="-37.5" width="450" fill="#ffffff" y="-37.499999" height="449.999989" fill-opacity="1"/><rect x="-37.5" width="450" fill="#ffffff" y="-37.499999" height="449.999989" fill-opacity="1"/><g fill="#000000" fill-opacity="1"><g transform="translate(97.704572, 184.907175)"><g><path d="M 38.625 -12.976562 C 33.628906 -4.8125 29.792969 -0.976562 21.933594 -0.976562 L 13.890625 -0.976562 L 13.890625 -20.835938 L 19.007812 -20.835938 C 26.5625 -20.835938 29.425781 -19.191406 30.886719 -13.648438 L 30.886719 -29.058594 C 29.425781 -23.457031 26.5625 -21.8125 19.007812 -21.8125 L 13.890625 -21.8125 L 13.890625 -41.671875 L 21.566406 -41.671875 C 29.425781 -41.671875 31.800781 -38.625 36.433594 -31.800781 L 36.675781 -31.925781 L 34.421875 -42.644531 L 0.914062 -42.644531 L 0.914062 -42.34375 C 3.410156 -42.039062 5.542969 -41.367188 5.542969 -39.171875 L 5.542969 -4.691406 C 5.542969 -2.496094 3.410156 -1.21875 0.914062 -0.304688 L 0.914062 0 L 33.203125 0 L 35.273438 1.339844 L 35.640625 0 L 38.871094 -12.855469 Z M 38.625 -12.976562 "/></g></g></g><g fill="#000000" fill-opacity="1"><g transform="translate(137.658017, 184.907175)"><g><path d="M 36.554688 -8.042969 L 29.183594 -18.15625 C 36.554688 -20.164062 41.0625 -25.039062 41.0625 -31.132812 C 41.0625 -39.050781 34.789062 -42.644531 23.882812 -42.644531 L 0.914062 -42.644531 L 0.914062 -42.34375 C 3.410156 -42.039062 5.542969 -41.367188 5.542969 -39.171875 L 5.542969 -3.472656 C 5.542969 -1.28125 3.410156 -0.609375 0.914062 -0.304688 L 0.914062 0 L 18.519531 0 L 18.519531 -0.304688 C 16.023438 -0.609375 13.890625 -1.28125 13.890625 -3.472656 L 13.890625 -17.179688 L 21.019531 -17.179688 L 32.472656 -1.035156 L 32.472656 0 L 45.632812 0 L 45.632812 -0.183594 C 42.464844 -1.765625 40.148438 -3.105469 36.554688 -8.042969 Z M 13.890625 -41.550781 L 20.59375 -41.550781 C 31.011719 -41.550781 32.835938 -35.09375 32.835938 -28.632812 C 32.835938 -20.164062 29.730469 -18.15625 23.578125 -18.15625 C 20.410156 -18.15625 17.058594 -18.640625 13.890625 -19.554688 Z M 13.890625 -41.550781 "/></g></g></g><g fill="#000000" fill-opacity="1"><g transform="translate(182.849232, 184.907175)"><g><path d="M 0.914062 0 L 18.519531 0 L 18.519531 -0.304688 C 16.023438 -0.609375 13.890625 -1.28125 13.890625 -3.472656 L 13.890625 -39.171875 C 13.890625 -41.367188 16.023438 -42.039062 18.519531 -42.34375 L 18.519531 -42.644531 L 0.914062 -42.644531 L 0.914062 -42.34375 C 3.410156 -42.039062 5.542969 -41.367188 5.542969 -39.171875 L 5.542969 -3.472656 C 5.542969 -1.28125 3.410156 -0.609375 0.914062 -0.304688 Z M 0.914062 0 "/></g></g></g><g fill="#000000" fill-opacity="1"><g transform="translate(202.460566, 184.907175)"><g><path d="M 26.257812 -43.5 C 12.976562 -43.5 2.742188 -35.03125 2.742188 -21.324219 C 2.742188 -7.617188 12.976562 0.851562 26.257812 0.851562 C 39.476562 0.851562 49.714844 -7.617188 49.714844 -21.324219 C 49.714844 -35.03125 39.476562 -43.5 26.257812 -43.5 Z M 28.816406 -0.242188 C 18.703125 -0.242188 11.574219 -13.21875 11.574219 -25.40625 C 11.574219 -35.519531 16.328125 -42.402344 23.636719 -42.402344 C 33.75 -42.402344 40.878906 -29.425781 40.878906 -17.300781 C 40.878906 -7.1875 36.128906 -0.242188 28.816406 -0.242188 Z M 28.816406 -0.242188 "/></g></g></g><g fill="#000000" fill-opacity="1"><g transform="translate(255.082157, 184.907175)"><g><path d="M 33.445312 -42.644531 L 33.445312 -42.34375 C 35.945312 -42.039062 38.078125 -40.148438 38.078125 -31.863281 L 38.078125 -12.488281 L 14.683594 -40.085938 C 13.828125 -41.367188 13.21875 -42.039062 12.855469 -42.644531 L 0.609375 -42.644531 C 2.558594 -41.671875 4.082031 -40.269531 6.152344 -37.832031 L 6.152344 -9.566406 C 6.152344 -1.28125 4.019531 -0.609375 1.523438 -0.304688 L 1.523438 0 L 12 0 L 12 -0.304688 C 9.503906 -0.609375 7.371094 -2.496094 7.371094 -10.785156 L 7.371094 -36.371094 L 39.417969 1.707031 L 39.539062 1.585938 C 39.417969 -0.609375 39.234375 -3.777344 39.234375 -10.113281 L 39.234375 -33.082031 C 39.234375 -41.367188 41.367188 -42.039062 43.863281 -42.34375 L 43.863281 -42.644531 Z M 33.445312 -42.644531 "/></g></g></g><g fill="#000000" fill-opacity="1"><g transform="translate(22.445233, 185.787139)"><g><path d="M 72.203125 -58.761719 L 72.203125 -59.183594 L 57.152344 -59.183594 L 36.949219 -11.414062 L 13.019531 -59.183594 L 0.84375 -59.183594 C 4.480469 -56.476562 6.085938 -53.941406 7.695312 -50.730469 L 7.695312 -13.273438 C 7.695312 -1.777344 4.734375 -0.84375 1.269531 -0.421875 L 1.269531 0 L 15.808594 0 L 15.808594 -0.421875 C 12.34375 -0.84375 9.386719 -3.464844 9.386719 -14.964844 L 9.386719 -47.347656 L 33.566406 0.929688 L 57.152344 -54.785156 L 57.152344 -4.820312 C 57.152344 -1.777344 54.195312 -0.84375 50.730469 -0.421875 L 50.730469 0 L 72.203125 0 L 72.203125 -0.421875 C 68.738281 -0.84375 65.777344 -1.777344 65.777344 -4.820312 L 65.777344 -54.363281 C 65.777344 -57.40625 68.738281 -58.339844 72.203125 -58.761719 Z M 72.203125 -58.761719 "/></g></g></g><g fill="#000000" fill-opacity="1"><g transform="translate(143.270721, 257.183)"><g><path d="M 38.625 -12.976562 C 33.628906 -4.8125 29.792969 -0.976562 21.933594 -0.976562 L 13.890625 -0.976562 L 13.890625 -20.835938 L 19.007812 -20.835938 C 26.5625 -20.835938 29.425781 -19.191406 30.886719 -13.648438 L 30.886719 -29.058594 C 29.425781 -23.457031 26.5625 -21.8125 19.007812 -21.8125 L 13.890625 -21.8125 L 13.890625 -41.671875 L 21.566406 -41.671875 C 29.425781 -41.671875 31.800781 -38.625 36.433594 -31.800781 L 36.675781 -31.925781 L 34.421875 -42.644531 L 0.914062 -42.644531 L 0.914062 -42.34375 C 3.410156 -42.039062 5.542969 -41.367188 5.542969 -39.171875 L 5.542969 -4.691406 C 5.542969 -2.496094 3.410156 -1.21875 0.914062 -0.304688 L 0.914062 0 L 33.203125 0 L 35.273438 1.339844 L 35.640625 0 L 38.871094 -12.855469 Z M 38.625 -12.976562 "/></g></g></g><g fill="#000000" fill-opacity="1"><g transform="translate(183.224167, 257.183)"><g><path d="M 38.625 -12.976562 C 33.628906 -4.8125 29.792969 -0.976562 21.933594 -0.976562 L 13.890625 -0.976562 L 13.890625 -20.835938 L 19.007812 -20.835938 C 26.5625 -20.835938 29.425781 -19.191406 30.886719 -13.648438 L 30.886719 -29.058594 C 29.425781 -23.457031 26.5625 -21.8125 19.007812 -21.8125 L 13.890625 -21.8125 L 13.890625 -41.671875 L 21.566406 -41.671875 C 29.425781 -41.671875 31.800781 -38.625 36.433594 -31.800781 L 36.675781 -31.925781 L 34.421875 -42.644531 L 0.914062 -42.644531 L 0.914062 -42.34375 C 3.410156 -42.039062 5.542969 -41.367188 5.542969 -39.171875 L 5.542969 -4.691406 C 5.542969 -2.496094 3.410156 -1.21875 0.914062 -0.304688 L 0.914062 0 L 33.203125 0 L 35.273438 1.339844 L 35.640625 0 L 38.871094 -12.855469 Z M 38.625 -12.976562 "/></g></g></g><g fill="#000000" fill-opacity="1"><g transform="translate(223.177612, 257.183)"><g><path d="M 13.890625 -3.472656 L 13.890625 -39.171875 C 13.890625 -41.367188 16.023438 -42.039062 18.519531 -42.34375 L 18.519531 -42.644531 L 0.914062 -42.644531 L 0.914062 -42.34375 C 3.410156 -42.039062 5.542969 -41.367188 5.542969 -39.171875 L 5.542969 -3.472656 C 5.542969 -1.28125 3.410156 -0.609375 0.914062 -0.304688 L 0.914062 0 L 18.519531 0 L 18.519531 -0.304688 C 16.023438 -0.609375 13.890625 -1.28125 13.890625 -3.472656 Z M 45.570312 0 C 42.402344 -1.585938 40.695312 -2.984375 36.492188 -8.042969 L 21.992188 -25.832031 L 31.800781 -35.273438 C 37.164062 -40.390625 40.453125 -41.976562 43.621094 -42.28125 L 43.742188 -42.644531 L 31.253906 -42.644531 L 31.132812 -42.28125 C 36.1875 -41.792969 35.578125 -40.453125 34.421875 -39.355469 L 14.132812 -19.800781 L 17.363281 -19.800781 L 32.472656 -1.035156 L 32.472656 0 Z M 45.570312 0 "/></g></g></g><g fill="#000000" fill-opacity="1"><g transform="translate(269.221481, 257.183)"><g><path d="M 37.285156 -12.550781 C 31.800781 -5.238281 28.878906 -0.976562 18.582031 -0.976562 L 13.890625 -0.976562 L 13.890625 -39.171875 C 13.890625 -41.367188 16.023438 -42.039062 19.128906 -42.34375 L 19.128906 -42.644531 L 0.914062 -42.644531 L 0.914062 -42.34375 C 3.410156 -42.039062 5.542969 -41.367188 5.542969 -39.171875 L 5.542969 -6.824219 C 5.542969 -3.59375 3.410156 -1.21875 0.914062 -0.304688 L 0.914062 0 L 31.925781 0 L 33.996094 1.339844 L 34.359375 0 L 37.527344 -12.429688 Z M 37.285156 -12.550781 "/></g></g></g><g fill="#000000" fill-opacity="1"><g transform="translate(307.83502, 257.183)"><g><path d="M 34.664062 -42.644531 L 34.664062 -42.402344 C 38.625 -41.792969 40.757812 -40.820312 38.136719 -36.492188 L 27.902344 -19.375 L 16.632812 -37.101562 L 13.34375 -42.644531 L 0.914062 -42.644531 L 0.914062 -42.402344 C 2.925781 -42.039062 5.058594 -40.636719 7.371094 -37.101562 L 20.289062 -16.996094 L 20.289062 -3.472656 C 20.289062 -1.28125 18.15625 -0.609375 15.046875 -0.304688 L 15.046875 0 L 33.875 0 L 33.875 -0.304688 C 30.765625 -0.609375 28.632812 -1.28125 28.632812 -3.472656 L 28.632812 -18.214844 L 39.660156 -36.433594 C 42.28125 -40.695312 44.777344 -41.671875 48.128906 -42.402344 L 48.128906 -42.644531 Z M 34.664062 -42.644531 "/></g></g></g><g fill="#000000" fill-opacity="1"><g transform="translate(53.664313, 255.972356)"><g><path d="M 78.96875 -59.183594 L 78.96875 -58.84375 C 83.703125 -57.832031 86.832031 -56.394531 83.957031 -49.039062 L 67.636719 -7.101562 L 51.828125 -49.039062 C 48.953125 -56.5625 52.25 -58.339844 58.167969 -58.84375 L 58.167969 -59.183594 L 34.242188 -59.183594 C 35.511719 -58.085938 37.117188 -55.632812 37.960938 -53.433594 L 45.65625 -33.648438 L 35.085938 -7.101562 L 19.277344 -49.039062 C 16.402344 -56.5625 19.699219 -58.339844 25.617188 -58.84375 L 25.617188 -59.183594 L 1.691406 -59.183594 C 2.960938 -58.085938 4.566406 -55.632812 5.410156 -53.433594 L 26.71875 1.4375 L 26.464844 3.210938 L 35.257812 -2.875 L 46.585938 -31.199219 L 59.269531 1.4375 L 59.015625 3.210938 L 67.808594 -2.875 L 85.816406 -48.953125 C 88.691406 -56.308594 90.972656 -57.832031 94.523438 -58.84375 L 94.523438 -59.183594 Z M 78.96875 -59.183594 "/></g></g></g></svg>