<svg xmlns="http://www.w3.org/2000/svg" xmlns:xlink="http://www.w3.org/1999/xlink" width="500" zoomAndPan="magnify" viewBox="0 0 375 374.999991" height="500" preserveAspectRatio="xMidYMid meet" version="1.0"><defs><g/><clipPath id="64e5e7b775"><path d="M 76.375 157.054688 L 141.070312 157.054688 L 141.070312 221.75 L 76.375 221.75 Z M 76.375 157.054688 " clip-rule="nonzero"/></clipPath><clipPath id="1c1eaf0610"><path d="M 151.535156 157.054688 L 216.230469 157.054688 L 216.230469 221.75 L 151.535156 221.75 Z M 151.535156 157.054688 " clip-rule="nonzero"/></clipPath><clipPath id="fcbef9e2c3"><path d="M 226.769531 157.054688 L 291.464844 157.054688 L 291.464844 221.75 L 226.769531 221.75 Z M 226.769531 157.054688 " clip-rule="nonzero"/></clipPath><clipPath id="ab94f2fdb3"><path d="M 302.003906 157.054688 L 366.699219 157.054688 L 366.699219 221.75 L 302.003906 221.75 Z M 302.003906 157.054688 " clip-rule="nonzero"/></clipPath></defs><rect x="-37.5" width="450" fill="#ffffff" y="-37.499999" height="449.999989" fill-opacity="1"/><rect x="-37.5" width="450" fill="#ffffff" y="-37.499999" height="449.999989" fill-opacity="1"/><rect x="-37.5" width="450" fill="#ffffff" y="-37.499999" height="449.999989" fill-opacity="1"/><g fill="#000000" fill-opacity="1"><g transform="translate(8.301175, 176.166007)"><g><path d="M 15.449219 -19.585938 L 1.636719 -19.585938 C 0.953125 -19.585938 0.773438 -19.257812 0.773438 -18.722656 L 0.773438 -16.25 C 0.773438 -15.714844 0.953125 -15.386719 1.636719 -15.386719 L 6.222656 -15.386719 L 6.222656 -0.863281 C 6.222656 -0.179688 6.546875 0 7.082031 0 L 10.03125 0 C 10.566406 0 10.894531 -0.179688 10.894531 -0.863281 L 10.894531 -15.386719 L 15.449219 -15.386719 C 16.132812 -15.386719 16.3125 -15.714844 16.3125 -16.25 L 16.3125 -18.722656 C 16.3125 -19.257812 16.132812 -19.585938 15.449219 -19.585938 Z M 15.449219 -19.585938 "/></g></g></g><g fill="#000000" fill-opacity="1"><g transform="translate(25.381743, 176.166007)"><g><path d="M 17.324219 -19.585938 L 14.375 -19.585938 C 13.839844 -19.585938 13.511719 -19.40625 13.511719 -18.722656 L 13.511719 -11.996094 L 6.875 -11.996094 L 6.875 -18.722656 C 6.875 -19.40625 6.578125 -19.585938 6.011719 -19.585938 L 3.066406 -19.585938 C 2.53125 -19.585938 2.203125 -19.40625 2.203125 -18.722656 L 2.203125 -0.863281 C 2.203125 -0.179688 2.53125 0 3.066406 0 L 6.011719 0 C 6.578125 0 6.875 -0.179688 6.875 -0.863281 L 6.875 -7.589844 L 13.511719 -7.589844 L 13.511719 -0.863281 C 13.511719 -0.179688 13.839844 0 14.375 0 L 17.324219 0 C 17.859375 0 18.1875 -0.179688 18.1875 -0.863281 L 18.1875 -18.722656 C 18.1875 -19.40625 17.859375 -19.585938 17.324219 -19.585938 Z M 17.324219 -19.585938 "/></g></g></g><g fill="#000000" fill-opacity="1"><g transform="translate(45.765341, 176.166007)"><g><path d="M 16.398438 -4.167969 L 6.90625 -4.167969 L 6.90625 -8.097656 L 14.882812 -8.097656 C 15.566406 -8.097656 15.746094 -8.421875 15.746094 -8.960938 L 15.746094 -11.28125 C 15.746094 -11.816406 15.566406 -12.144531 14.882812 -12.144531 L 6.90625 -12.144531 L 6.90625 -15.386719 L 15.894531 -15.386719 C 16.578125 -15.386719 16.757812 -15.714844 16.757812 -16.25 L 16.757812 -18.722656 C 16.757812 -19.257812 16.578125 -19.585938 15.894531 -19.585938 L 3.066406 -19.585938 C 2.382812 -19.585938 2.203125 -19.257812 2.203125 -18.722656 L 2.203125 -0.863281 C 2.203125 -0.328125 2.382812 0 3.066406 0 L 16.398438 0 C 17.085938 0 17.261719 -0.328125 17.261719 -0.863281 L 17.261719 -3.304688 C 17.261719 -3.839844 17.085938 -4.167969 16.398438 -4.167969 Z M 16.398438 -4.167969 "/></g></g></g><g clip-path="url(#64e5e7b775)"><path fill="#000000" d="M 76.375 157.054688 L 141.070312 157.054688 L 141.070312 221.75 L 76.375 221.75 Z M 76.375 157.054688 " fill-opacity="1" fill-rule="nonzero"/></g><g fill="#ffffff" fill-opacity="1"><g transform="translate(90.671951, 206.790898)"><g><path d="M 18.847656 -37.8125 L 5.917969 -37.8125 C 4.597656 -37.8125 4.253906 -37.183594 4.253906 -36.148438 L 4.253906 -1.667969 C 4.253906 -0.34375 4.886719 0 5.917969 0 L 11.609375 0 C 12.644531 0 13.273438 -0.34375 13.273438 -1.667969 L 13.273438 -11.207031 L 18.792969 -11.207031 C 28.617188 -11.207031 33.90625 -16.492188 33.90625 -24.480469 C 33.90625 -32.410156 28.734375 -37.8125 18.847656 -37.8125 Z M 18.792969 -18.964844 L 13.273438 -18.964844 L 13.273438 -29.710938 L 18.792969 -29.710938 C 23.273438 -29.710938 25.226562 -27.296875 25.226562 -24.308594 C 25.226562 -21.4375 23.273438 -18.964844 18.792969 -18.964844 Z M 18.792969 -18.964844 "/></g></g></g><g clip-path="url(#1c1eaf0610)"><path fill="#000000" d="M 151.535156 157.054688 L 216.230469 157.054688 L 216.230469 221.75 L 151.535156 221.75 Z M 151.535156 157.054688 " fill-opacity="1" fill-rule="nonzero"/></g><g fill="#ffffff" fill-opacity="1"><g transform="translate(167.156374, 207.198113)"><g><path d="M 29.832031 -8.046875 L 13.277344 -8.046875 L 13.277344 -36.152344 C 13.277344 -37.476562 12.644531 -37.820312 11.609375 -37.820312 L 5.921875 -37.820312 C 4.886719 -37.820312 4.253906 -37.476562 4.253906 -36.152344 L 4.253906 -1.667969 C 4.253906 -0.632812 4.597656 0 5.921875 0 L 29.832031 0 C 31.152344 0 31.496094 -0.632812 31.496094 -1.667969 L 31.496094 -6.378906 C 31.496094 -7.414062 31.152344 -8.046875 29.832031 -8.046875 Z M 29.832031 -8.046875 "/></g></g></g><g clip-path="url(#fcbef9e2c3)"><path fill="#000000" d="M 226.769531 157.054688 L 291.464844 157.054688 L 291.464844 221.75 L 226.769531 221.75 Z M 226.769531 157.054688 " fill-opacity="1" fill-rule="nonzero"/></g><g fill="#ffffff" fill-opacity="1"><g transform="translate(239.500638, 207.198113)"><g><path d="M 31.667969 -8.046875 L 13.335938 -8.046875 L 13.335938 -15.632812 L 28.738281 -15.632812 C 30.058594 -15.632812 30.40625 -16.265625 30.40625 -17.300781 L 30.40625 -21.785156 C 30.40625 -22.816406 30.058594 -23.449219 28.738281 -23.449219 L 13.335938 -23.449219 L 13.335938 -29.714844 L 30.691406 -29.714844 C 32.015625 -29.714844 32.359375 -30.347656 32.359375 -31.382812 L 32.359375 -36.152344 C 32.359375 -37.1875 32.015625 -37.820312 30.691406 -37.820312 L 5.921875 -37.820312 C 4.597656 -37.820312 4.253906 -37.1875 4.253906 -36.152344 L 4.253906 -1.667969 C 4.253906 -0.632812 4.597656 0 5.921875 0 L 31.667969 0 C 32.992188 0 33.335938 -0.632812 33.335938 -1.667969 L 33.335938 -6.378906 C 33.335938 -7.414062 32.992188 -8.046875 31.667969 -8.046875 Z M 31.667969 -8.046875 "/></g></g></g><g clip-path="url(#ab94f2fdb3)"><path fill="#000000" d="M 302.003906 157.054688 L 366.699219 157.054688 L 366.699219 221.75 L 302.003906 221.75 Z M 302.003906 157.054688 " fill-opacity="1" fill-rule="nonzero"/></g><g fill="#ffffff" fill-opacity="1"><g transform="translate(308.54228, 207.198113)"><g><path d="M 49.371094 -37.820312 L 43.28125 -37.820312 C 41.554688 -37.820312 41.152344 -36.671875 40.980469 -35.980469 L 35.289062 -16.4375 L 29.714844 -35.980469 C 29.484375 -36.785156 29.082031 -37.820312 27.820312 -37.820312 L 23.796875 -37.820312 C 22.472656 -37.820312 22.070312 -36.785156 21.839844 -35.980469 L 16.324219 -16.4375 L 10.632812 -35.980469 C 10.402344 -36.671875 10.058594 -37.820312 8.335938 -37.820312 L 2.011719 -37.820312 C 0.976562 -37.820312 0.804688 -36.84375 0.976562 -36.152344 L 11.609375 -1.207031 C 11.609375 -1.207031 11.898438 0 13.164062 0 L 18.21875 0 C 19.714844 0 20.058594 -1.320312 20.058594 -1.320312 L 25.808594 -19.65625 L 31.554688 -1.320312 C 31.554688 -1.320312 31.898438 0 33.394531 0 L 38.222656 0 C 39.488281 0 39.773438 -1.207031 39.773438 -1.207031 L 50.347656 -36.152344 C 50.578125 -36.84375 50.40625 -37.820312 49.371094 -37.820312 Z M 49.371094 -37.820312 "/></g></g></g></svg>