<svg xmlns="http://www.w3.org/2000/svg" xmlns:xlink="http://www.w3.org/1999/xlink" width="500" zoomAndPan="magnify" viewBox="0 0 375 374.999991" height="500" preserveAspectRatio="xMidYMid meet" version="1.0"><defs><g/><clipPath id="26261a7e38"><path d="M 156 165.097656 L 208.835938 165.097656 L 208.835938 198.21875 L 156 198.21875 Z M 156 165.097656 " clip-rule="nonzero"/></clipPath></defs><rect x="-37.5" width="450" fill="#ffffff" y="-37.499999" height="449.999989" fill-opacity="1"/><rect x="-37.5" width="450" fill="#ffffff" y="-37.499999" height="449.999989" fill-opacity="1"/><rect x="-37.5" width="450" fill="#ffffff" y="-37.499999" height="449.999989" fill-opacity="1"/><g fill="#000000" fill-opacity="1"><g transform="translate(34.568726, 196.030918)"><g><path d="M 2.269531 0 L 10.902344 0 L 10.902344 -11.492188 L 18.804688 -11.492188 L 18.804688 -18.488281 L 10.902344 -18.488281 L 10.902344 -24.164062 L 23.9375 -24.164062 L 23.9375 -31.796875 L 2.269531 -31.796875 Z M 2.269531 0 "/></g></g></g><g fill="#000000" fill-opacity="1"><g transform="translate(57.502813, 196.030918)"><g><path d="M 2.269531 0 L 10.902344 0 L 10.902344 -9.722656 L 13.765625 -9.722656 L 18.488281 0 L 26.980469 0 L 21.214844 -11.402344 C 23.9375 -13.082031 25.710938 -16.171875 25.710938 -20.757812 C 25.710938 -28.34375 20.894531 -31.796875 14.761719 -31.796875 L 2.269531 -31.796875 Z M 10.902344 -16.851562 L 10.902344 -24.664062 L 14.082031 -24.664062 C 16.535156 -24.664062 17.851562 -23.257812 17.851562 -20.757812 C 17.851562 -18.304688 16.488281 -16.851562 14.082031 -16.851562 Z M 10.902344 -16.851562 "/></g></g></g><g fill="#000000" fill-opacity="1"><g transform="translate(83.797578, 196.030918)"><g><path d="M 1.773438 0 L 23.710938 0 L 23.710938 -7.632812 L 10.402344 -7.632812 L 10.402344 -12.402344 L 18.304688 -12.402344 L 18.304688 -19.394531 L 10.402344 -19.394531 L 10.402344 -24.164062 L 23.4375 -24.164062 L 23.4375 -31.796875 L 1.773438 -31.796875 Z M 1.773438 0 "/></g></g></g><g fill="#000000" fill-opacity="1"><g transform="translate(108.048679, 196.030918)"><g><path d="M 1.816406 0 L 21.257812 0 L 21.257812 -7.722656 L 10.449219 -7.722656 L 10.449219 -31.796875 L 1.816406 -31.796875 Z M 1.816406 0 "/></g></g></g><g fill="#000000" fill-opacity="1"><g transform="translate(129.12076, 196.030918)"><g><path d="M 1.816406 0 L 21.257812 0 L 21.257812 -7.722656 L 10.449219 -7.722656 L 10.449219 -31.796875 L 1.816406 -31.796875 Z M 1.816406 0 "/></g></g></g><g fill="#000000" fill-opacity="1"><g transform="translate(150.191011, 196.030918)"><g/></g></g><g fill="#000000" fill-opacity="1"><g transform="translate(158.138285, 196.030918)"><g/></g></g><g fill="#000000" fill-opacity="1"><g transform="translate(166.08556, 196.030918)"><g/></g></g><g fill="#000000" fill-opacity="1"><g transform="translate(174.032834, 196.030918)"><g/></g></g><g fill="#000000" fill-opacity="1"><g transform="translate(181.980109, 196.030918)"><g/></g></g><g fill="#000000" fill-opacity="1"><g transform="translate(189.927385, 196.030918)"><g/></g></g><g fill="#000000" fill-opacity="1"><g transform="translate(197.87466, 196.030918)"><g/></g></g><g fill="#000000" fill-opacity="1"><g transform="translate(205.821936, 196.030918)"><g/></g></g><g fill="#000000" fill-opacity="1"><g transform="translate(213.765238, 196.030918)"><g><path d="M 1.816406 0 L 10.449219 0 L 10.449219 -16.671875 L 10.628906 -16.671875 L 14.988281 -6.496094 L 20.804688 -6.496094 L 25.164062 -16.671875 L 25.347656 -16.671875 L 25.347656 0 L 33.976562 0 L 33.976562 -31.796875 L 23.03125 -31.796875 L 18.125 -17.625 L 17.804688 -17.625 L 12.765625 -31.796875 L 1.816406 -31.796875 Z M 1.816406 0 "/></g></g></g><g fill="#000000" fill-opacity="1"><g transform="translate(248.643351, 196.030918)"><g><path d="M 1.773438 0 L 23.710938 0 L 23.710938 -7.632812 L 10.402344 -7.632812 L 10.402344 -12.402344 L 18.304688 -12.402344 L 18.304688 -19.394531 L 10.402344 -19.394531 L 10.402344 -24.164062 L 23.4375 -24.164062 L 23.4375 -31.796875 L 1.773438 -31.796875 Z M 1.773438 0 "/></g></g></g><g fill="#000000" fill-opacity="1"><g transform="translate(272.894452, 196.030918)"><g><path d="M 2.269531 0 L 12.992188 0 C 23.847656 0 27.4375 -6.996094 27.4375 -15.898438 C 27.4375 -24.800781 23.847656 -31.796875 12.992188 -31.796875 L 2.269531 -31.796875 Z M 10.902344 -7.449219 L 10.902344 -24.347656 L 13.445312 -24.347656 C 16.488281 -24.347656 19.261719 -22.03125 19.261719 -15.898438 C 19.261719 -9.765625 16.488281 -7.449219 13.445312 -7.449219 Z M 10.902344 -7.449219 "/></g></g></g><g fill="#000000" fill-opacity="1"><g transform="translate(300.68789, 196.030918)"><g><path d="M 2.042969 0 L 10.675781 0 L 10.675781 -31.796875 L 2.042969 -31.796875 Z M 2.042969 0 "/></g></g></g><g fill="#000000" fill-opacity="1"><g transform="translate(312.495397, 196.030918)"><g><path d="M -0.226562 0 L 7.675781 0 L 9.359375 -6.269531 L 17.761719 -6.269531 L 19.351562 0 L 28.164062 0 L 19.304688 -31.796875 L 8.175781 -31.796875 Z M 11.082031 -12.902344 L 13.492188 -23.984375 L 13.765625 -23.984375 L 16.082031 -12.902344 Z M 11.082031 -12.902344 "/></g></g></g><g clip-path="url(#26261a7e38)"><path fill="#000000" d="M 207.441406 193.386719 L 186.207031 166.203125 C 185.34375 165.097656 183.941406 165.097656 183.078125 166.203125 L 179.710938 170.515625 C 178.847656 171.621094 178.847656 173.410156 179.710938 174.515625 L 197.578125 197.390625 C 197.996094 197.921875 198.558594 198.21875 199.144531 198.21875 L 205.878906 198.21875 C 207.847656 198.21875 208.835938 195.171875 207.441406 193.386719 Z M 188.28125 193.386719 C 189.675781 195.171875 188.6875 198.21875 186.71875 198.21875 L 179.984375 198.21875 C 179.398438 198.21875 178.835938 197.921875 178.421875 197.390625 L 174.226562 192.019531 C 173.359375 190.914062 171.960938 190.914062 171.097656 192.019531 L 166.902344 197.390625 C 166.488281 197.921875 165.925781 198.21875 165.339844 198.21875 L 158.605469 198.21875 C 156.636719 198.21875 155.648438 195.171875 157.042969 193.386719 L 171.097656 175.394531 C 171.960938 174.289062 173.359375 174.289062 174.226562 175.394531 L 188.28125 193.386719 " fill-opacity="1" fill-rule="evenodd"/></g></svg>