<svg xmlns="http://www.w3.org/2000/svg" xmlns:xlink="http://www.w3.org/1999/xlink" width="500" zoomAndPan="magnify" viewBox="0 0 375 374.999991" height="500" preserveAspectRatio="xMidYMid meet" version="1.0"><defs><clipPath id="2ea2e434a0"><path d="M 15.101562 36.78125 L 360 36.78125 L 360 338.28125 L 15.101562 338.28125 Z M 15.101562 36.78125 " clip-rule="nonzero"/></clipPath></defs><rect x="-37.5" width="450" fill="#ffffff" y="-37.499999" height="449.999989" fill-opacity="1"/><rect x="-37.5" width="450" fill="#ffffff" y="-37.499999" height="449.999989" fill-opacity="1"/><rect x="-37.5" width="450" fill="#ffffff" y="-37.499999" height="449.999989" fill-opacity="1"/><g clip-path="url(#2ea2e434a0)"><path fill="#7197bf" d="M 204.183594 241.605469 L 204.183594 268.921875 C 204.183594 271.003906 203.140625 272.953125 201.394531 274.085938 C 187.5625 283.097656 170.855469 287.601562 151.277344 287.601562 C 150.777344 287.601562 150.28125 287.589844 149.792969 287.585938 C 138.933594 287.425781 129.03125 285.417969 120.074219 281.574219 C 112.792969 278.445312 106.253906 274.328125 100.445312 269.199219 C 98.78125 267.75 97.175781 266.203125 95.628906 264.570312 C 88.695312 257.265625 83.339844 248.671875 79.570312 238.800781 C 75.800781 228.921875 73.914062 218.140625 73.914062 206.4375 L 73.914062 205.710938 C 73.914062 194.746094 75.800781 184.449219 79.570312 174.824219 C 83.339844 165.199219 88.570312 156.789062 95.261719 149.59375 C 101.949219 142.402344 109.734375 136.671875 118.617188 132.414062 C 127.492188 128.144531 137.042969 126.007812 147.261719 126.007812 C 152.128906 126.007812 156.71875 126.277344 161.046875 126.832031 C 161.175781 126.847656 161.300781 126.867188 161.429688 126.882812 L 161.386719 126.984375 L 155.878906 139.917969 L 145.691406 163.859375 C 144.78125 165.988281 146.347656 168.359375 148.667969 168.359375 L 196.527344 168.359375 C 197.839844 168.359375 199.019531 167.5625 199.519531 166.351562 L 202.234375 159.726562 L 207.605469 146.625 L 220.066406 116.214844 C 222.933594 113.050781 228.53125 113.664062 230.328125 118.054688 C 230.566406 118.628906 230.871094 119.140625 231.238281 119.59375 L 234.566406 127.714844 L 240.15625 141.355469 L 253.40625 173.6875 L 257.070312 182.621094 C 257.941406 184.75 256.375 187.082031 254.074219 187.082031 L 253.746094 187.082031 C 253.308594 186.980469 252.855469 186.925781 252.386719 186.925781 L 153.796875 186.925781 C 153.332031 186.925781 152.882812 186.980469 152.449219 187.074219 L 137.945312 187.074219 C 136.648438 187.074219 135.476562 187.851562 134.96875 189.046875 L 134.074219 191.144531 L 107.695312 253.121094 C 106.792969 255.242188 107.332031 257.722656 109.070312 259.242188 L 109.101562 259.265625 L 109.160156 259.316406 C 113.855469 263.464844 119.257812 266.867188 125.214844 269.421875 C 132.511719 272.558594 140.796875 274.214844 149.835938 274.351562 C 150.261719 274.355469 150.691406 274.363281 151.121094 274.363281 L 151.167969 274.363281 C 153.851562 274.363281 156.257812 272.722656 157.269531 270.238281 L 165.9375 248.984375 L 170.132812 238.699219 C 170.628906 237.484375 171.8125 236.6875 173.128906 236.6875 L 201.730469 236.6875 C 203.21875 237.816406 204.183594 239.59375 204.183594 241.605469 Z M 359.15625 289.457031 L 252.4375 38.761719 C 251.929688 37.570312 250.757812 36.792969 249.460938 36.792969 L 201.921875 36.792969 C 200.625 36.792969 199.449219 37.570312 198.945312 38.761719 L 187.960938 64.570312 L 182.667969 77.007812 C 182.539062 76.980469 182.417969 76.953125 182.292969 76.933594 C 181.628906 76.816406 180.957031 76.699219 180.285156 76.582031 C 170.914062 75.007812 160.515625 74.210938 149.085938 74.210938 C 129.621094 74.210938 111.742188 77.675781 95.445312 84.605469 C 79.140625 91.539062 65.035156 101.023438 53.117188 113.058594 C 41.191406 125.097656 31.886719 139.089844 25.203125 155.007812 C 18.507812 170.941406 15.167969 188.019531 15.167969 206.257812 L 15.167969 206.984375 C 15.167969 225.957031 18.449219 243.464844 25.019531 259.515625 C 31.585938 275.5625 40.769531 289.421875 52.570312 301.09375 C 64.363281 312.769531 78.476562 321.890625 94.898438 328.453125 C 111.320312 335.019531 129.5 338.300781 149.453125 338.300781 C 172.804688 338.300781 193.539062 334.351562 211.667969 326.445312 C 228.765625 319 243.648438 310.078125 256.308594 299.695312 C 257.734375 298.523438 258.558594 296.769531 258.558594 294.925781 L 258.558594 236.6875 L 276.792969 236.6875 C 278.105469 236.6875 279.292969 237.484375 279.789062 238.699219 L 301.503906 291.941406 C 301.996094 293.160156 303.183594 293.957031 304.492188 293.957031 L 356.179688 293.957031 C 358.5 293.957031 360.066406 291.585938 359.15625 289.457031 " fill-opacity="1" fill-rule="nonzero"/></g></svg>