<svg xmlns="http://www.w3.org/2000/svg" xmlns:xlink="http://www.w3.org/1999/xlink" width="500" zoomAndPan="magnify" viewBox="0 0 375 374.999991" height="500" preserveAspectRatio="xMidYMid meet" version="1.0"><defs><clipPath id="59e82f5dc3"><path d="M 30.683594 15.613281 L 179 15.613281 L 179 359.113281 L 30.683594 359.113281 Z M 30.683594 15.613281 " clip-rule="nonzero"/></clipPath><clipPath id="824b4c6eb5"><path d="M 263 20 L 337.433594 20 L 337.433594 95 L 263 95 Z M 263 20 " clip-rule="nonzero"/></clipPath></defs><rect x="-37.5" width="450" fill="#ffffff" y="-37.499999" height="449.999989" fill-opacity="1"/><rect x="-37.5" width="450" fill="#ffffff" y="-37.499999" height="449.999989" fill-opacity="1"/><rect x="-37.5" width="450" fill="#ffffff" y="-37.499999" height="449.999989" fill-opacity="1"/><g clip-path="url(#59e82f5dc3)"><path fill="#396274" d="M 178.5 359.097656 C 156.328125 359.097656 136.164062 355.632812 118.003906 348.699219 C 99.84375 341.765625 84.296875 331.980469 71.363281 319.34375 C 58.421875 306.710938 48.414062 291.453125 41.34375 273.566406 C 34.269531 255.675781 30.730469 235.800781 30.722656 213.933594 L 30.722656 26.757812 C 30.714844 26.03125 30.78125 25.308594 30.921875 24.597656 C 31.058594 23.882812 31.265625 23.1875 31.539062 22.511719 C 31.816406 21.839844 32.152344 21.199219 32.554688 20.59375 C 32.957031 19.988281 33.414062 19.425781 33.929688 18.910156 C 34.441406 18.394531 35 17.933594 35.605469 17.527344 C 36.210938 17.125 36.851562 16.78125 37.523438 16.503906 C 38.195312 16.222656 38.886719 16.015625 39.601562 15.871094 C 40.316406 15.730469 41.039062 15.660156 41.765625 15.664062 L 111.253906 15.664062 C 111.980469 15.664062 112.703125 15.734375 113.417969 15.875 C 114.128906 16.015625 114.824219 16.226562 115.496094 16.503906 C 116.167969 16.785156 116.808594 17.125 117.414062 17.53125 C 118.015625 17.933594 118.578125 18.394531 119.089844 18.910156 C 119.605469 19.425781 120.0625 19.988281 120.464844 20.59375 C 120.867188 21.199219 121.207031 21.839844 121.480469 22.515625 C 121.757812 23.1875 121.964844 23.882812 122.101562 24.597656 C 122.242188 25.308594 122.308594 26.03125 122.304688 26.757812 L 122.304688 213.953125 C 122.304688 213.953125 120.503906 317.324219 178.488281 359.097656 Z M 178.5 359.097656 " fill-opacity="1" fill-rule="nonzero"/></g><path fill="#396274" d="M 234.230469 49.230469 L 234.175781 48.988281 L 234.230469 49.011719 Z M 234.230469 49.230469 " fill-opacity="1" fill-rule="nonzero"/><path fill="#eedcd6" d="M 234.230469 49.015625 L 234.230469 213.953125 C 234.230469 225.972656 232.292969 235.914062 228.410156 243.769531 C 224.527344 251.628906 219.808594 257.789062 214.253906 262.253906 C 208.867188 266.644531 202.828125 269.804688 196.148438 271.726562 C 189.644531 273.578125 183.757812 274.503906 178.496094 274.5 C 175.9375 274.492188 173.394531 274.292969 170.863281 273.910156 C 167.480469 273.40625 164.144531 272.675781 160.855469 271.726562 C 154.113281 269.777344 147.996094 266.621094 142.507812 262.253906 C 142.507812 262.253906 146.152344 336.8125 211.78125 355.335938 C 212.824219 355.519531 213.871094 355.613281 214.925781 355.613281 C 227.429688 355.746094 253.226562 346.6875 276.585938 327.363281 L 276.816406 327.175781 C 283.585938 321.570312 289.773438 315.386719 295.371094 308.617188 L 295.574219 308.371094 C 307.90625 293.347656 317.792969 274.585938 321.914062 251.863281 C 321.910156 251.84375 321.910156 251.828125 321.914062 251.808594 C 322.316406 249.574219 322.660156 247.300781 322.953125 244.988281 C 325.628906 222.632812 300.542969 143.289062 234.230469 49.015625 Z M 234.230469 49.015625 " fill-opacity="1" fill-rule="nonzero"/><g clip-path="url(#824b4c6eb5)"><path fill="#edddd3" d="M 337.449219 57.363281 C 337.449219 58.578125 337.390625 59.792969 337.269531 61.003906 C 337.148438 62.214844 336.972656 63.417969 336.734375 64.613281 C 336.496094 65.808594 336.199219 66.988281 335.847656 68.152344 C 335.492188 69.316406 335.082031 70.460938 334.617188 71.585938 C 334.152344 72.710938 333.632812 73.808594 333.058594 74.882812 C 332.484375 75.957031 331.859375 77 331.179688 78.011719 C 330.503906 79.023438 329.777344 80 329.007812 80.941406 C 328.234375 81.882812 327.417969 82.785156 326.554688 83.644531 C 325.695312 84.507812 324.792969 85.324219 323.851562 86.09375 C 322.910156 86.867188 321.933594 87.589844 320.917969 88.269531 C 319.90625 88.945312 318.863281 89.570312 317.789062 90.144531 C 316.714844 90.71875 315.613281 91.238281 314.488281 91.703125 C 313.363281 92.167969 312.21875 92.578125 311.050781 92.933594 C 309.886719 93.285156 308.707031 93.582031 307.511719 93.816406 C 306.316406 94.054688 305.113281 94.234375 303.902344 94.351562 C 302.6875 94.472656 301.472656 94.53125 300.257812 94.53125 C 299.039062 94.53125 297.824219 94.472656 296.609375 94.351562 C 295.398438 94.234375 294.195312 94.054688 293 93.816406 C 291.804688 93.582031 290.625 93.285156 289.460938 92.933594 C 288.292969 92.578125 287.148438 92.167969 286.023438 91.703125 C 284.898438 91.238281 283.796875 90.71875 282.722656 90.144531 C 281.648438 89.570312 280.605469 88.945312 279.59375 88.269531 C 278.578125 87.589844 277.601562 86.867188 276.660156 86.09375 C 275.71875 85.324219 274.816406 84.507812 273.957031 83.644531 C 273.09375 82.785156 272.277344 81.882812 271.503906 80.941406 C 270.734375 80 270.007812 79.023438 269.332031 78.011719 C 268.65625 77 268.027344 75.957031 267.453125 74.882812 C 266.878906 73.808594 266.359375 72.710938 265.894531 71.585938 C 265.429688 70.460938 265.019531 69.316406 264.664062 68.152344 C 264.3125 66.988281 264.015625 65.808594 263.777344 64.613281 C 263.539062 63.417969 263.363281 62.214844 263.242188 61.003906 C 263.121094 59.792969 263.0625 58.578125 263.0625 57.363281 C 263.0625 56.144531 263.121094 54.929688 263.242188 53.71875 C 263.363281 52.507812 263.539062 51.304688 263.777344 50.109375 C 264.015625 48.914062 264.3125 47.738281 264.664062 46.570312 C 265.019531 45.40625 265.429688 44.261719 265.894531 43.136719 C 266.359375 42.011719 266.878906 40.914062 267.453125 39.839844 C 268.027344 38.765625 268.65625 37.722656 269.332031 36.710938 C 270.007812 35.699219 270.734375 34.722656 271.503906 33.78125 C 272.277344 32.839844 273.09375 31.9375 273.957031 31.078125 C 274.816406 30.21875 275.71875 29.402344 276.660156 28.628906 C 277.601562 27.855469 278.578125 27.132812 279.59375 26.457031 C 280.605469 25.777344 281.648438 25.152344 282.722656 24.578125 C 283.796875 24.007812 284.898438 23.484375 286.023438 23.019531 C 287.148438 22.554688 288.292969 22.144531 289.460938 21.792969 C 290.625 21.4375 291.804688 21.140625 293 20.90625 C 294.195312 20.667969 295.398438 20.488281 296.609375 20.371094 C 297.824219 20.25 299.039062 20.191406 300.257812 20.191406 C 301.472656 20.191406 302.6875 20.25 303.902344 20.371094 C 305.113281 20.488281 306.316406 20.667969 307.511719 20.90625 C 308.707031 21.140625 309.886719 21.4375 311.050781 21.792969 C 312.21875 22.144531 313.363281 22.554688 314.488281 23.019531 C 315.613281 23.484375 316.714844 24.007812 317.789062 24.578125 C 318.863281 25.152344 319.90625 25.777344 320.917969 26.457031 C 321.933594 27.132812 322.910156 27.855469 323.851562 28.628906 C 324.792969 29.402344 325.695312 30.21875 326.554688 31.078125 C 327.417969 31.9375 328.234375 32.839844 329.007812 33.78125 C 329.777344 34.722656 330.503906 35.699219 331.179688 36.710938 C 331.859375 37.722656 332.484375 38.765625 333.058594 39.839844 C 333.632812 40.914062 334.152344 42.011719 334.617188 43.136719 C 335.082031 44.261719 335.492188 45.40625 335.847656 46.570312 C 336.199219 47.738281 336.496094 48.914062 336.734375 50.109375 C 336.972656 51.304688 337.148438 52.507812 337.269531 53.71875 C 337.390625 54.929688 337.449219 56.144531 337.449219 57.363281 Z M 337.449219 57.363281 " fill-opacity="1" fill-rule="nonzero"/></g></svg>