<svg xmlns="http://www.w3.org/2000/svg" xmlns:xlink="http://www.w3.org/1999/xlink" width="500" zoomAndPan="magnify" viewBox="0 0 375 374.999991" height="500" preserveAspectRatio="xMidYMid meet" version="1.0"><defs><clipPath id="b03948b238"><path d="M 75 24.375 L 292 24.375 L 292 248 L 75 248 Z M 75 24.375 " clip-rule="nonzero"/></clipPath><clipPath id="69bc1e0b5b"><path d="M 13.960938 269 L 41 269 L 41 303 L 13.960938 303 Z M 13.960938 269 " clip-rule="nonzero"/></clipPath><clipPath id="5bc05aa1db"><path d="M 332 277 L 361.210938 277 L 361.210938 313 L 332 313 Z M 332 277 " clip-rule="nonzero"/></clipPath><clipPath id="8021774a9f"><path d="M 199 331 L 215 331 L 215 350.625 L 199 350.625 Z M 199 331 " clip-rule="nonzero"/></clipPath></defs><rect x="-37.5" width="450" fill="#ffffff" y="-37.499999" height="449.999989" fill-opacity="1"/><rect x="-37.5" width="450" fill="#ffffff" y="-37.499999" height="449.999989" fill-opacity="1"/><rect x="-37.5" width="450" fill="#ffffff" y="-37.499999" height="449.999989" fill-opacity="1"/><path fill="#8cba51" d="M 186.632812 205.644531 L 197.402344 178.382812 L 186.285156 199.914062 L 185.765625 185.503906 L 194.277344 164.148438 L 185.589844 180.988281 L 184.894531 164.84375 L 188.542969 154.597656 L 184.722656 162.585938 L 183.851562 142.964844 L 182.8125 162.238281 L 179.164062 154.425781 L 182.8125 164.148438 L 182.8125 164.320312 L 181.941406 179.949219 L 173.605469 163.972656 L 181.59375 183.941406 L 180.726562 200.609375 L 169.261719 178.210938 L 180.378906 206.511719 L 180.378906 206.683594 L 178.292969 247.3125 L 188.195312 247.3125 L 186.457031 205.816406 Z M 186.632812 205.644531 " fill-opacity="1" fill-rule="nonzero"/><g clip-path="url(#b03948b238)"><path fill="#8cba51" d="M 287.558594 228.5625 C 281.828125 228.5625 277.308594 227.171875 273.835938 224.222656 C 270.535156 221.269531 267.0625 215.367188 263.761719 206.164062 L 196.535156 24.554688 L 170.476562 24.554688 L 103.078125 204.601562 C 99.777344 213.109375 97.171875 218.664062 95.261719 221.269531 C 93.347656 223.875 90.917969 225.785156 88.3125 227 C 85.707031 228.214844 81.363281 228.734375 75.28125 228.734375 L 75.28125 247.140625 L 171.34375 247.140625 L 173.257812 220.402344 C 160.75 218.316406 119.230469 205.296875 181.769531 119.179688 C 181.769531 119.179688 260.113281 206.859375 192.539062 219.882812 L 194.277344 247.140625 L 291.207031 247.140625 L 291.207031 228.386719 L 287.558594 228.386719 Z M 287.558594 228.5625 " fill-opacity="1" fill-rule="nonzero"/></g><g clip-path="url(#69bc1e0b5b)"><path fill="#8cba51" d="M 25.773438 271.96875 L 13.960938 271.96875 L 13.960938 269.882812 L 40.019531 269.882812 L 40.019531 271.96875 L 28.207031 271.96875 L 28.207031 302.699219 L 25.773438 302.699219 Z M 25.773438 271.96875 " fill-opacity="1" fill-rule="nonzero"/></g><path fill="#8cba51" d="M 56.175781 278.042969 L 56.175781 280.300781 C 56 280.300781 55.828125 280.300781 55.652344 280.300781 C 50.269531 280.300781 46.96875 283.949219 46.96875 290.023438 L 46.96875 302.875 L 44.535156 302.875 L 44.535156 278.390625 L 46.792969 278.390625 L 46.792969 283.773438 C 48.359375 279.953125 51.660156 278.042969 56.175781 278.042969 Z M 56.175781 278.042969 " fill-opacity="1" fill-rule="nonzero"/><path fill="#8cba51" d="M 83.273438 291.066406 L 62.082031 291.066406 C 62.253906 296.96875 66.597656 300.789062 72.503906 300.789062 C 75.628906 300.789062 78.410156 299.574219 80.320312 297.316406 L 81.710938 298.878906 C 79.625 301.484375 76.152344 302.875 72.503906 302.875 C 65.035156 302.875 59.824219 297.664062 59.824219 290.371094 C 59.824219 283.078125 64.859375 277.871094 71.636719 277.871094 C 78.410156 277.871094 83.273438 282.90625 83.273438 290.199219 C 83.273438 290.546875 83.273438 290.71875 83.273438 291.066406 Z M 62.082031 289.15625 L 80.84375 289.15625 C 80.496094 283.773438 76.671875 279.953125 71.460938 279.953125 C 66.25 279.953125 62.601562 283.773438 62.082031 289.15625 Z M 62.082031 289.15625 " fill-opacity="1" fill-rule="nonzero"/><path fill="#8cba51" d="M 111.242188 291.066406 L 90.222656 291.066406 C 90.394531 296.96875 94.738281 300.789062 100.644531 300.789062 C 103.773438 300.789062 106.550781 299.574219 108.460938 297.316406 L 109.851562 298.878906 C 107.765625 301.484375 104.292969 302.875 100.644531 302.875 C 93.175781 302.875 87.964844 297.664062 87.964844 290.371094 C 87.964844 283.078125 93 277.871094 99.777344 277.871094 C 106.550781 277.871094 111.414062 282.90625 111.414062 290.199219 C 111.414062 290.546875 111.242188 290.71875 111.242188 291.066406 Z M 90.222656 289.15625 L 108.984375 289.15625 C 108.636719 283.773438 104.8125 279.953125 99.601562 279.953125 C 94.390625 279.953125 90.570312 283.773438 90.222656 289.15625 Z M 90.222656 289.15625 " fill-opacity="1" fill-rule="nonzero"/><path fill="#8cba51" d="M 127.570312 286.207031 C 127.570312 276.308594 135.214844 269.191406 145.460938 269.191406 C 151.195312 269.191406 155.886719 271.273438 159.011719 275.09375 L 154.148438 279.609375 C 151.890625 277.003906 149.109375 275.789062 145.808594 275.789062 C 139.730469 275.789062 135.214844 280.128906 135.214844 286.378906 C 135.214844 292.628906 139.554688 296.96875 145.808594 296.96875 C 149.109375 296.96875 151.890625 295.582031 154.148438 293.148438 L 159.011719 297.664062 C 155.886719 301.484375 151.195312 303.566406 145.460938 303.566406 C 135.214844 303.21875 127.570312 296.273438 127.570312 286.207031 Z M 127.570312 286.207031 " fill-opacity="1" fill-rule="nonzero"/><path fill="#8cba51" d="M 160.921875 290.023438 C 160.921875 282.386719 166.828125 277.003906 174.820312 277.003906 C 182.8125 277.003906 188.71875 282.386719 188.71875 290.023438 C 188.71875 297.664062 182.8125 303.046875 174.820312 303.046875 C 166.828125 303.046875 160.921875 297.664062 160.921875 290.023438 Z M 181.246094 290.023438 C 181.246094 285.683594 178.46875 283.078125 174.820312 283.078125 C 171.171875 283.078125 168.394531 285.683594 168.394531 290.023438 C 168.394531 294.367188 171.171875 296.96875 174.820312 296.96875 C 178.46875 297.144531 181.246094 294.367188 181.246094 290.023438 Z M 181.246094 290.023438 " fill-opacity="1" fill-rule="nonzero"/><path fill="#8cba51" d="M 236.3125 288.289062 L 236.3125 302.699219 L 229.019531 302.699219 L 229.019531 289.332031 C 229.019531 285.164062 227.105469 283.425781 224.152344 283.425781 C 220.855469 283.425781 218.59375 285.511719 218.59375 290.023438 L 218.59375 302.699219 L 211.300781 302.699219 L 211.300781 289.332031 C 211.300781 285.164062 209.5625 283.425781 206.433594 283.425781 C 203.136719 283.425781 200.875 285.511719 200.875 290.023438 L 200.875 302.699219 L 193.582031 302.699219 L 193.582031 277.351562 L 200.53125 277.351562 L 200.53125 280.300781 C 202.441406 278.21875 205.21875 277.003906 208.519531 277.003906 C 211.996094 277.003906 215.121094 278.390625 216.859375 281.171875 C 218.941406 278.566406 222.242188 277.003906 226.066406 277.003906 C 231.972656 277.003906 236.3125 280.476562 236.3125 288.289062 Z M 236.3125 288.289062 " fill-opacity="1" fill-rule="nonzero"/><path fill="#8cba51" d="M 270.535156 290.023438 C 270.535156 298.011719 264.976562 303.046875 257.855469 303.046875 C 254.726562 303.046875 252.121094 302.003906 250.210938 299.921875 L 250.210938 311.726562 L 242.914062 311.726562 L 242.914062 277.351562 L 249.863281 277.351562 L 249.863281 280.300781 C 251.773438 278.042969 254.378906 277.003906 257.855469 277.003906 C 264.976562 277.003906 270.535156 282.210938 270.535156 290.023438 Z M 263.066406 290.023438 C 263.066406 285.683594 260.285156 283.078125 256.636719 283.078125 C 252.992188 283.078125 250.210938 285.683594 250.210938 290.023438 C 250.210938 294.367188 252.992188 296.96875 256.636719 296.96875 C 260.285156 297.144531 263.066406 294.367188 263.066406 290.023438 Z M 263.066406 290.023438 " fill-opacity="1" fill-rule="nonzero"/><path fill="#8cba51" d="M 297.460938 288.289062 L 297.460938 302.699219 L 290.511719 302.699219 L 290.511719 299.574219 C 289.121094 301.832031 286.515625 303.046875 282.867188 303.046875 C 276.960938 303.046875 273.488281 299.746094 273.488281 295.40625 C 273.488281 290.894531 276.613281 287.769531 284.433594 287.769531 L 290.339844 287.769531 C 290.339844 284.644531 288.425781 282.734375 284.433594 282.734375 C 281.828125 282.734375 279.046875 283.601562 277.136719 285.164062 L 274.53125 279.953125 C 277.308594 278.042969 281.480469 276.828125 285.472656 276.828125 C 292.945312 277.003906 297.460938 280.648438 297.460938 288.289062 Z M 289.992188 294.710938 L 289.992188 292.109375 L 284.953125 292.109375 C 281.480469 292.109375 280.4375 293.324219 280.4375 295.058594 C 280.4375 296.96875 282 298.183594 284.605469 298.183594 C 287.039062 298.183594 289.121094 296.96875 289.992188 294.710938 Z M 289.992188 294.710938 " fill-opacity="1" fill-rule="nonzero"/><path fill="#8cba51" d="M 329.945312 288.289062 L 329.945312 302.699219 L 322.648438 302.699219 L 322.648438 289.332031 C 322.648438 285.164062 320.738281 283.425781 317.4375 283.425781 C 313.964844 283.425781 311.359375 285.511719 311.359375 290.199219 L 311.359375 302.699219 L 304.0625 302.699219 L 304.0625 277.351562 L 311.011719 277.351562 L 311.011719 280.300781 C 312.921875 278.21875 315.875 277.003906 319.347656 277.003906 C 325.429688 277.003906 329.945312 280.476562 329.945312 288.289062 Z M 329.945312 288.289062 " fill-opacity="1" fill-rule="nonzero"/><g clip-path="url(#5bc05aa1db)"><path fill="#8cba51" d="M 361.210938 277.351562 L 349.746094 304.261719 C 347.316406 310.339844 343.839844 312.25 339.324219 312.25 C 336.71875 312.25 333.941406 311.378906 332.203125 309.992188 L 334.808594 304.78125 C 335.851562 305.824219 337.414062 306.34375 338.976562 306.34375 C 341.0625 306.34375 342.105469 305.476562 343.148438 303.21875 L 343.320312 303.046875 L 332.375 277.523438 L 340.019531 277.523438 L 347.140625 294.710938 L 354.265625 277.523438 L 361.210938 277.523438 Z M 361.210938 277.351562 " fill-opacity="1" fill-rule="nonzero"/></g><path fill="#3c3c3b" d="M 110.71875 338.8125 L 110.71875 345.238281 L 109.332031 345.238281 L 109.332031 338.8125 L 101.859375 326.484375 L 103.425781 326.484375 L 110.199219 337.425781 L 116.972656 326.484375 L 118.363281 326.484375 Z M 110.71875 338.8125 " fill-opacity="1" fill-rule="nonzero"/><path fill="#3c3c3b" d="M 118.191406 338.292969 C 118.191406 334.125 121.144531 331.171875 125.136719 331.171875 C 129.132812 331.171875 132.085938 334.125 132.085938 338.292969 C 132.085938 342.460938 129.132812 345.410156 125.136719 345.410156 C 121.144531 345.238281 118.191406 342.460938 118.191406 338.292969 Z M 130.695312 338.292969 C 130.695312 334.820312 128.265625 332.390625 125.136719 332.390625 C 122.011719 332.390625 119.578125 334.820312 119.578125 338.292969 C 119.578125 341.765625 122.011719 344.195312 125.136719 344.195312 C 128.265625 344.195312 130.695312 341.765625 130.695312 338.292969 Z M 130.695312 338.292969 " fill-opacity="1" fill-rule="nonzero"/><path fill="#3c3c3b" d="M 148.414062 331.171875 L 148.414062 345.0625 L 147.199219 345.0625 L 147.199219 342.285156 C 146.332031 344.195312 144.421875 345.410156 141.988281 345.410156 C 138.515625 345.410156 136.082031 343.328125 136.082031 339.507812 L 136.082031 331.347656 L 137.472656 331.347656 L 137.472656 339.335938 C 137.472656 342.460938 139.210938 344.195312 141.988281 344.195312 C 145.113281 344.195312 147.027344 342.113281 147.027344 338.8125 L 147.027344 331.347656 L 148.414062 331.347656 Z M 148.414062 331.171875 " fill-opacity="1" fill-rule="nonzero"/><path fill="#3c3c3b" d="M 160.75 331.171875 L 160.75 332.5625 C 160.574219 332.5625 160.574219 332.5625 160.402344 332.5625 C 157.273438 332.5625 155.539062 334.644531 155.539062 338.117188 L 155.539062 345.410156 L 154.148438 345.410156 L 154.148438 331.519531 L 155.363281 331.519531 L 155.363281 334.644531 C 156.234375 332.214844 158.144531 331.171875 160.75 331.171875 Z M 160.75 331.171875 " fill-opacity="1" fill-rule="nonzero"/><path fill="#3c3c3b" d="M 175.515625 327.703125 L 168.738281 327.703125 L 168.738281 326.484375 L 183.503906 326.484375 L 183.503906 327.703125 L 176.730469 327.703125 L 176.730469 345.238281 L 175.515625 345.238281 Z M 175.515625 327.703125 " fill-opacity="1" fill-rule="nonzero"/><path fill="#3c3c3b" d="M 195.839844 336.382812 L 195.839844 345.238281 L 194.625 345.238281 L 194.625 342.804688 C 193.753906 344.371094 192.015625 345.410156 189.585938 345.410156 C 186.457031 345.410156 184.546875 343.847656 184.546875 341.417969 C 184.546875 339.335938 185.9375 337.597656 189.757812 337.597656 L 194.625 337.597656 L 194.625 336.554688 C 194.625 333.953125 193.234375 332.5625 190.453125 332.5625 C 188.542969 332.5625 186.804688 333.257812 185.589844 334.300781 L 184.894531 333.257812 C 186.285156 332.042969 188.371094 331.347656 190.453125 331.347656 C 193.929688 331.171875 195.839844 332.910156 195.839844 336.382812 Z M 194.625 341.070312 L 194.625 338.464844 L 189.933594 338.464844 C 186.980469 338.464844 186.109375 339.679688 186.109375 341.242188 C 186.109375 342.980469 187.5 344.195312 189.933594 344.195312 C 192.191406 344.195312 193.753906 343.152344 194.625 341.070312 Z M 194.625 341.070312 " fill-opacity="1" fill-rule="nonzero"/><g clip-path="url(#8021774a9f)"><path fill="#3c3c3b" d="M 214.078125 331.171875 L 214.078125 343.675781 C 214.078125 348.363281 211.820312 350.445312 207.304688 350.445312 C 204.699219 350.445312 202.265625 349.578125 200.875 348.1875 L 201.570312 347.148438 C 202.960938 348.363281 205.046875 349.230469 207.128906 349.230469 C 210.777344 349.230469 212.515625 347.496094 212.515625 343.847656 L 212.515625 341.417969 C 211.300781 343.5 209.214844 344.542969 206.78125 344.542969 C 202.789062 344.542969 199.835938 341.765625 199.835938 337.773438 C 199.835938 333.777344 202.789062 331 206.78125 331 C 209.386719 331 211.472656 332.214844 212.6875 334.300781 L 212.6875 331.171875 Z M 212.6875 337.945312 C 212.6875 334.644531 210.257812 332.390625 206.957031 332.390625 C 203.65625 332.390625 201.222656 334.644531 201.222656 337.945312 C 201.222656 341.242188 203.65625 343.5 206.957031 343.5 C 210.257812 343.5 212.6875 341.242188 212.6875 337.945312 Z M 212.6875 337.945312 " fill-opacity="1" fill-rule="nonzero"/></g><path fill="#3c3c3b" d="M 219.636719 325.445312 L 221.027344 325.445312 L 221.027344 345.238281 L 219.636719 345.238281 Z M 219.636719 325.445312 " fill-opacity="1" fill-rule="nonzero"/><path fill="#3c3c3b" d="M 226.238281 326.832031 C 226.238281 326.3125 226.761719 325.792969 227.28125 325.792969 C 227.976562 325.792969 228.324219 326.3125 228.324219 326.832031 C 228.324219 327.527344 227.800781 327.875 227.28125 327.875 C 226.761719 327.875 226.238281 327.355469 226.238281 326.832031 Z M 226.585938 331.171875 L 227.976562 331.171875 L 227.976562 345.0625 L 226.585938 345.0625 Z M 226.585938 331.171875 " fill-opacity="1" fill-rule="nonzero"/><path fill="#3c3c3b" d="M 246.214844 337.078125 L 246.214844 345.238281 L 244.824219 345.238281 L 244.824219 337.078125 C 244.824219 333.953125 243.089844 332.214844 240.308594 332.214844 C 237.007812 332.214844 235.097656 334.300781 235.097656 337.597656 L 235.097656 345.0625 L 233.707031 345.0625 L 233.707031 331.171875 L 234.925781 331.171875 L 234.925781 334.125 C 235.792969 332.214844 237.878906 331 240.484375 331 C 243.785156 331.171875 246.214844 333.082031 246.214844 337.078125 Z M 246.214844 337.078125 " fill-opacity="1" fill-rule="nonzero"/><path fill="#3c3c3b" d="M 263.414062 338.464844 L 251.425781 338.464844 C 251.601562 341.765625 254.03125 344.023438 257.332031 344.023438 C 259.070312 344.023438 260.808594 343.328125 261.847656 342.113281 L 262.542969 342.980469 C 261.328125 344.542969 259.417969 345.238281 257.332031 345.238281 C 253.164062 345.238281 250.210938 342.285156 250.210938 338.117188 C 250.210938 333.953125 252.992188 331 256.8125 331 C 260.632812 331 263.414062 333.953125 263.414062 337.945312 C 263.414062 338.292969 263.414062 338.464844 263.414062 338.464844 Z M 251.425781 337.425781 L 262.195312 337.425781 C 262.023438 334.472656 259.765625 332.214844 256.8125 332.214844 C 253.859375 332.214844 251.773438 334.472656 251.425781 337.425781 Z M 251.425781 337.425781 " fill-opacity="1" fill-rule="nonzero"/></svg>